<svg width="74" height="58" viewBox="0 0 74 58" fill="none" xmlns="http://www.w3.org/2000/svg">
<path d="M1.66071 47.8995C22.862 46.9281 41.1086 46.3668 71.7351 48.1369C71.7567 48.0506 71.7782 47.9858 71.7998 47.8995C73.5037 42.0062 73.8056 35.8755 72.7057 29.5505C71.3462 23.7276 68.7657 18.2604 65.1353 13.5113C64.3589 12.6478 63.5824 11.806 62.7628 10.9425C61.938 10.0746 61.0591 9.2599 60.1315 8.50313C58.2864 7.01245 56.3164 5.68353 54.2435 4.53112C49.9215 2.40832 45.2923 0.98046 40.5262 0.30006C39.5772 0.213712 38.6714 0.148951 37.7655 0.105777C36.8597 0.0626025 35.9107 0.0410156 34.8754 0.0410156C32.5676 0.30006 30.1305 0.688627 27.5639 1.20672C23.6115 2.46016 19.8243 4.18513 16.2838 6.34443C13.4084 8.43354 10.7816 10.8454 8.45462 13.5329C6.99921 15.4121 5.67332 17.3883 4.48612 19.4478C2.69598 23.1176 1.44503 26.5067 0.776426 29.5937C0.257455 32.6895 -0.00225815 35.8233 -1.61255e-05 38.9624C0.255008 41.4212 0.643801 43.8641 1.16465 46.2804C1.31562 46.8417 1.48816 47.3814 1.66071 47.8995ZM19.3249 46.4963H16.3701C15.8936 43.4797 15.5911 40.4381 15.4642 37.3866H21.7405C21.7405 40.4735 21.8699 43.4525 22.1287 46.3668C21.2229 46.4531 20.2739 46.4963 19.3249 46.4963ZM19.4543 26.2909C18.5053 26.2477 17.5348 26.2261 16.4995 26.2261C17.1625 23.1809 18.0197 20.1813 19.0661 17.2459C19.9288 17.3322 20.7484 17.397 21.568 17.4402C22.3876 17.4833 23.164 17.5049 23.9405 17.5049C23.1886 20.4082 22.6764 23.3684 22.4091 26.3556C21.3739 26.3556 20.4033 26.334 19.4543 26.2909ZM24.1993 16.4688C23.4228 16.4688 22.6679 16.4472 21.8915 16.404C21.115 16.3608 20.317 16.2961 19.4543 16.2097C20.8941 13.151 22.6125 10.2316 24.5875 7.48854C25.5691 7.58931 26.5557 7.63256 27.5423 7.61807C26.152 10.4564 25.0327 13.4198 24.1993 16.4688ZM28.6854 7.74759H31.8775C31.1462 10.6616 30.5916 13.6173 30.2167 16.5983C29.4403 16.5983 28.6423 16.5767 27.7795 16.5335C26.9168 16.4903 26.0757 16.4688 25.213 16.4688C26.1153 13.4663 27.2771 10.5482 28.6854 7.74759ZM26.3129 46.302C25.3208 46.3452 24.3287 46.3668 23.2934 46.3668C22.9186 43.3885 22.7456 40.3883 22.7758 37.3866H28.9226C28.9226 38.9193 28.9658 40.4304 29.052 41.8767C29.1383 43.323 29.1815 44.7909 29.1815 46.2373C28.2756 46.2373 27.3051 46.2589 26.3129 46.302ZM29.0736 32.0114C28.9874 33.4578 28.9442 34.9257 28.9442 36.372H22.7973C22.7773 33.3706 22.9502 30.371 23.315 27.3918C24.3502 27.4781 25.3424 27.5213 26.3345 27.5213H29.2246C29.203 29.054 29.1599 30.5435 29.0736 32.0114ZM36.2558 46.2373H30.3461C30.2599 44.7909 30.1952 43.323 30.152 41.8767C30.1089 40.4304 30.0873 38.9193 30.0873 37.3866H36.2558V46.2373ZM36.2558 36.372H30.1089C30.1089 34.9257 30.1305 33.4578 30.1736 32.0114C30.2167 30.5651 30.2814 29.054 30.3677 27.5213H36.2773V36.372H36.2558ZM36.2558 26.4851H30.3461C30.5187 23.5709 30.7775 20.635 31.1226 17.6345C32.2441 17.7208 33.948 17.764 36.2558 17.764V26.4851ZM42.5968 12.2377C42.3677 10.7221 42.0435 9.22242 41.6262 7.74759H44.6888C45.9614 9.97105 47.126 12.8853 48.1613 16.4688C47.0398 16.5551 45.4222 16.5983 43.2869 16.5983V16.4688C43.0497 15.1088 42.8124 13.684 42.5968 12.2377ZM45.8751 7.61807C46.8617 7.63198 47.8483 7.58874 48.8299 7.48854C50.7926 9.79836 52.5036 12.7054 53.9631 16.2097C53.1866 16.2961 52.4102 16.3608 51.5906 16.404C50.771 16.4472 49.9946 16.4688 49.2181 16.4688C48.4417 13.1443 47.3417 10.1869 45.8751 7.61807ZM43.4379 17.6345C44.3006 17.6345 45.1418 17.6129 46.0045 17.5697C46.8672 17.5265 47.6652 17.5049 48.4417 17.5049C49.1833 20.4167 49.738 23.373 50.1024 26.3556C49.1534 26.442 48.2044 26.4851 47.2123 26.4851H44.1928C44.1926 25.0278 44.1061 23.5717 43.934 22.1246C43.783 20.6566 43.6104 19.1671 43.4379 17.6345ZM50.1024 46.3668C49.1534 46.3668 48.2044 46.3452 47.2123 46.302C46.2202 46.2589 45.228 46.2373 44.1928 46.2373C44.3649 44.7901 44.4514 43.3341 44.4516 41.8767V37.3866H50.5985C50.6415 40.3879 50.4758 43.3885 50.1024 46.3668ZM44.4732 36.372V32.0114C44.4705 30.5111 44.3841 29.012 44.2144 27.5213H47.2339C48.226 27.5213 49.2181 27.4781 50.2534 27.3918C50.5122 30.4787 50.6416 33.4793 50.6416 36.372H44.4732ZM57.7375 41.7472C57.6081 43.1935 57.4571 44.6182 57.2845 45.9782C57.1983 46.0646 57.1551 46.2805 57.1551 46.6258C56.1199 46.6258 55.1278 46.6043 54.1356 46.5611C53.1435 46.5179 52.1514 46.4531 51.1161 46.3668C51.3761 44.9033 51.5489 43.4255 51.6337 41.9415C51.72 40.452 51.7632 38.9193 51.7632 37.3866H57.91C57.9283 38.8421 57.8707 40.2976 57.7375 41.7472ZM51.7847 36.372C51.7847 34.9257 51.7416 33.4362 51.6553 31.9467C51.569 30.4572 51.4396 28.9245 51.2671 27.3918H54.2219C55.1709 27.3918 56.1414 27.3486 57.1767 27.2623C57.5958 30.283 57.8549 33.3238 57.9532 36.372H51.7847ZM70.8724 47.2735C69.9234 47.1871 68.996 47.1223 68.047 47.0792C67.098 47.036 66.1274 46.9712 65.0922 46.8849C65.5224 45.351 65.8253 43.7842 65.998 42.2005C66.1714 40.6017 66.2578 38.9947 66.2568 37.3866H72.4037C72.3471 40.7368 71.8318 44.0634 70.8724 47.2735ZM70.8724 26.6147C71.9076 30.1981 72.4037 33.4578 72.4037 36.372H66.2568C66.1565 33.1772 65.7667 29.998 65.0922 26.8737C66.1274 26.8737 67.098 26.8521 68.047 26.8089C68.996 26.7658 69.945 26.701 70.8724 26.6147ZM56.2709 6.97045C57.3924 7.74759 58.8806 8.8917 60.757 10.446C62.3636 11.9661 63.8626 13.5962 65.2431 15.3246C64.2079 15.411 62.7628 15.5405 60.8864 15.7132C59.3551 12.799 57.1767 10.0214 54.3513 7.38061C54.3136 7.34824 54.2827 7.30865 54.2605 7.26416C54.2383 7.21968 54.2251 7.17119 54.2219 7.12156C54.5895 7.12026 54.9567 7.09864 55.3219 7.0568C55.6351 7.00061 55.9526 6.97172 56.2709 6.97045ZM54.8474 6.08539C54.2477 6.06393 53.6475 6.10736 53.0572 6.21491C51.6382 5.07893 50.1389 4.04725 48.5711 3.12796C50.7375 3.94724 52.8361 4.93611 54.8474 6.08539ZM45.0986 2.60987C47.579 3.7324 49.671 4.96286 51.3749 6.32284C50.6465 6.30893 49.9182 6.35224 49.1966 6.45237C48.0466 4.8644 46.5585 3.55196 44.8398 2.60987H45.0986ZM47.924 6.45237C47.0724 6.55287 46.2149 6.59614 45.3575 6.58189C44.8398 5.80475 44.3222 5.04921 43.7614 4.27207C43.1825 3.4742 42.517 2.74297 41.7772 2.09178C43.9124 3.04161 45.9614 4.48795 47.924 6.45237ZM42.036 3.84033C42.8732 4.71547 43.6044 5.6864 44.2144 6.733H41.2811C40.8497 4.68223 40.1596 3.02003 39.2321 1.7248C40.2818 2.26264 41.2304 2.9784 42.036 3.84033ZM37.0106 1.12037C37.7871 1.63846 38.4126 2.48035 38.8871 3.64605C39.3616 4.81175 39.7282 5.82634 39.987 6.68982C38.9986 6.79526 38.0045 6.83852 37.0106 6.81935V1.12037ZM36.2558 1.20672V6.86252C35.2691 6.88123 34.2822 6.83797 33.3009 6.733C33.5598 5.86952 33.9264 4.87651 34.4009 3.71081C34.8754 2.54511 35.5009 1.70322 36.2558 1.20672ZM34.3362 1.5737C33.8016 2.37058 33.3738 3.23424 33.0637 4.14255C32.7186 5.09238 32.4167 5.93428 32.1578 6.71141C31.2142 6.72852 30.2705 6.68526 29.3324 6.58189C30.0096 5.62322 30.7367 4.7009 31.5108 3.81875C32.3001 2.89608 33.2594 2.13389 34.3362 1.5737ZM31.6402 2.09178C30.307 3.4713 29.1082 4.97479 28.0599 6.58189C27.2455 6.59915 26.4308 6.55586 25.6227 6.45237C27.2989 4.63733 29.3043 3.15757 31.5324 2.09178H31.6402ZM28.0815 2.54511H28.3403C26.6069 3.50195 25.1048 4.82847 23.9405 6.43078C23.2116 6.3308 22.4761 6.2875 21.7405 6.30126C23.6879 4.78717 25.8184 3.52515 28.0815 2.54511ZM24.9757 3.12796C23.4029 4.0394 21.903 5.07147 20.4896 6.21491C19.8982 6.11627 19.2989 6.07291 18.6994 6.08539C20.7276 4.96905 22.8238 3.9813 24.9757 3.12796ZM17.1465 6.97045C17.5357 6.96804 17.9247 6.98967 18.3112 7.03522C18.6546 7.07829 19.0004 7.09991 19.3465 7.09998C18.0362 8.34343 16.8315 9.69367 15.7446 11.1368C14.6446 12.6263 13.6094 14.1589 12.6604 15.6916C11.9539 15.6902 11.2481 15.6469 10.5467 15.5621C9.81341 15.4757 9.08011 15.3894 8.30366 15.3031C10.7798 12.0635 13.7665 9.24913 17.1465 6.97045ZM7.5272 16.3392C9.57616 16.5119 11.0859 16.6414 12.0133 16.7278C10.5716 19.6481 9.40897 22.6982 8.5409 25.8375C7.67818 25.8375 6.79389 25.8159 5.8449 25.7728C4.89591 25.7296 3.92535 25.6648 2.89009 25.5785C4.0727 22.3292 5.62886 19.2286 7.5272 16.3392ZM2.52343 26.6147C3.55869 26.701 4.52925 26.7658 5.47824 26.8089C6.42724 26.8521 7.3978 26.8737 8.43306 26.8737C7.67399 29.9831 7.28307 33.1711 7.26838 36.372H1.12151C1.15473 33.0717 1.62616 29.7906 2.52343 26.6147ZM7.28996 37.3866C7.30225 40.5802 7.64923 43.7637 8.32522 46.8849C7.37623 46.9712 6.44881 47.0576 5.49982 47.1439C4.55083 47.2303 3.58027 47.2735 2.545 47.2735C1.62072 44.0591 1.14886 40.7314 1.14308 37.3866H7.28996Z" fill="white"/>
<path d="M10.4605 51.0729C10.2017 53.1236 10.0722 54.1598 9.83499 56.2106C9.74872 56.2106 9.70558 56.189 9.61931 56.189C9.53372 56.008 9.43269 55.8346 9.31735 55.6709C8.28209 54.0951 7.76446 53.2963 6.77233 51.6989H6.70763C6.47039 53.3179 6.36255 54.1167 6.14687 55.7357C6.08217 55.7141 6.0606 55.7141 6.03903 55.6925C6.01746 55.6925 5.99589 55.6709 5.95275 55.6709H5.75864C6.06059 53.6202 6.19 52.584 6.49195 50.5332C6.59979 50.5548 6.66449 50.5548 6.77233 50.5764C7.85073 52.3033 8.41151 53.1668 9.55461 54.8722H9.61931C9.81342 53.3179 9.8997 52.5408 10.0938 51.0081C10.1585 51.0297 10.1801 51.0297 10.2016 51.0513C10.2232 51.0513 10.2448 51.0729 10.2664 51.0729H10.4605Z" fill="white"/>
<path d="M13.4369 51.7851C13.2212 53.7064 13.1133 54.6778 12.9192 56.599C12.8681 56.5875 12.8177 56.5731 12.7682 56.5559C12.7251 56.5559 12.6604 56.5343 12.6173 56.5343H12.3153C12.531 54.613 12.6388 53.6632 12.8545 51.742C12.6042 51.7075 12.3522 51.6859 12.0996 51.6772C11.9487 51.6772 11.6898 51.6556 11.3448 51.6556C11.3448 51.6124 11.3663 51.5909 11.3663 51.5477C11.3838 51.5145 11.3913 51.4771 11.3879 51.4397V51.2239C12.8114 51.3966 13.5231 51.4613 14.9466 51.6124C14.925 51.6988 14.925 51.742 14.9035 51.8283V52.0442C14.7309 52.001 14.5153 51.9578 14.2564 51.9147C13.987 51.8505 13.713 51.8072 13.4369 51.7851Z" fill="white"/>
<path d="M15.7446 51.6555C16.974 51.785 17.5779 51.8282 18.8073 51.9361C18.7857 52.0225 18.7857 52.0657 18.7641 52.1736V52.3895C18.6616 52.3679 18.5607 52.339 18.4622 52.3031C18.363 52.2797 18.262 52.2652 18.1602 52.26C17.8798 52.2384 17.7504 52.2168 17.47 52.1736C17.0171 52.1304 16.7799 52.1088 16.3269 52.0657C16.2622 52.8212 16.2191 53.1882 16.1544 53.9437C16.8446 54.0085 17.1681 54.0301 17.8583 54.0948H18.5053C18.4851 54.1582 18.4706 54.2232 18.4622 54.2891V54.505C18.3607 54.4968 18.2599 54.4824 18.1602 54.4618C18.0536 54.4396 17.9454 54.4252 17.8367 54.4187C17.1465 54.3539 16.823 54.3323 16.1328 54.2675C16.0466 55.1526 16.0034 55.5844 15.9172 56.4694C16.025 56.491 16.0897 56.491 16.2191 56.5126C16.4995 56.5342 16.7583 56.5558 16.9956 56.5774C17.2328 56.5989 17.5132 56.5989 17.8367 56.6205C17.9587 56.6314 18.0814 56.6314 18.2034 56.6205C18.2974 56.627 18.3918 56.6197 18.4837 56.5989C18.4622 56.6853 18.4622 56.7285 18.4406 56.8364V57.0523C17.1681 56.9443 16.521 56.8796 15.2485 56.7716C15.4426 54.7209 15.5505 53.7063 15.7446 51.6555Z" fill="white"/>
<path d="M23.466 56.6422C23.4444 56.8364 23.4228 56.9228 23.4013 57.1171C23.1683 57.2549 22.9127 57.3499 22.6464 57.3977C22.3614 57.4449 22.0719 57.4594 21.7837 57.4409C21.4435 57.4366 21.1084 57.3569 20.8026 57.2076C20.4968 57.0583 20.2279 56.8431 20.0151 56.5774C19.8029 56.2886 19.6498 55.9606 19.5647 55.6124C19.4795 55.2641 19.464 54.9025 19.519 54.5482C19.5238 54.1944 19.603 53.8456 19.7517 53.5246C19.9004 53.2035 20.1151 52.9175 20.3818 52.6852C20.6485 52.4529 20.9611 52.2796 21.2993 52.1766C21.6375 52.0735 21.9937 52.0431 22.3444 52.0873C22.8591 52.1213 23.3599 52.2688 23.811 52.519C23.7758 52.6031 23.7469 52.6897 23.7248 52.7781C23.7032 52.886 23.6601 52.9724 23.6385 53.0803C23.6268 53.0788 23.6149 53.08 23.6037 53.0838C23.5925 53.0875 23.5823 53.0937 23.5738 53.1019C23.4272 52.8821 23.2267 52.7037 22.9915 52.5838C22.7836 52.4539 22.546 52.3796 22.3013 52.3679C22.0209 52.3413 21.7383 52.3846 21.4786 52.4938C21.2189 52.603 20.9903 52.7748 20.8131 52.9939C20.4415 53.462 20.2298 54.0371 20.2092 54.6346C20.1445 55.3685 20.2739 55.9514 20.5974 56.4047C20.7415 56.624 20.9363 56.8053 21.1654 56.9331C21.3944 57.0609 21.6509 57.1314 21.9131 57.1387C22.4723 57.1563 23.0205 56.981 23.466 56.6422Z" fill="white"/>
<path d="M28.1893 54.6777C28.2325 53.8143 28.2325 53.3825 28.2756 52.4974C28.3164 52.515 28.3608 52.5225 28.405 52.519C28.4481 52.519 28.5129 52.5406 28.5776 52.5406H28.7717C28.8148 52.5406 28.8579 52.519 28.8795 52.5406C28.8148 54.613 28.7717 55.6492 28.6854 57.7215C28.6368 57.7052 28.5856 57.6979 28.5344 57.6999C28.4913 57.6999 28.4266 57.6783 28.3834 57.6783H28.2109C28.1596 57.6732 28.1078 57.6806 28.0599 57.6999C28.1031 56.6637 28.1246 56.1241 28.1678 55.0879C27.9952 55.0879 27.7148 55.0663 27.3266 55.0447C26.9384 55.0231 26.7227 55.0015 26.7011 55.0015C26.5286 55.0015 26.2482 54.98 25.86 54.98C25.4718 54.98 25.2561 54.9584 25.2129 54.9584C25.1482 55.9945 25.1267 56.5126 25.0835 57.5704C25.035 57.5541 24.9838 57.5467 24.9326 57.5488C24.8894 57.5488 24.8247 57.5272 24.7816 57.5272H24.6522C24.5869 57.5268 24.5217 57.534 24.4581 57.5488C24.5659 55.4765 24.6306 54.4403 24.7385 52.3679C24.7946 52.3834 24.8528 52.3906 24.911 52.3895C24.9541 52.3895 24.9757 52.4111 25.0404 52.4111H25.3424C25.2992 53.2746 25.2777 53.7063 25.2345 54.5914C25.4071 54.5914 25.6875 54.613 26.0972 54.6561C26.4855 54.6777 26.7011 54.6993 26.7227 54.6993C26.8953 54.6993 27.1756 54.7209 27.5639 54.7209C27.7714 54.6949 27.9802 54.6805 28.1893 54.6777Z" fill="white"/>
<path d="M31.9206 56.7934H31.9853C32.1036 57.0111 32.2565 57.208 32.4382 57.3763C32.6291 57.524 32.8656 57.6004 33.1068 57.5922C33.2398 57.5929 33.3714 57.5664 33.4938 57.5144C33.6162 57.4625 33.7267 57.3861 33.8186 57.2899C34.0082 57.0765 34.1086 56.7983 34.0989 56.5128C34.1013 56.324 34.0498 56.1383 33.9505 55.9778C33.8511 55.8172 33.7081 55.6883 33.5382 55.6062C33.1931 55.4335 32.8049 55.2608 32.4814 55.0881C32.2989 54.9706 32.1509 54.8068 32.0524 54.6134C31.9538 54.42 31.9084 54.2039 31.9206 53.9871C31.9099 53.7826 31.9473 53.5785 32.0297 53.391C32.1121 53.2036 32.2372 53.0381 32.3951 52.9078C32.7013 52.6665 33.0842 52.5438 33.4735 52.5624C33.6581 52.5669 33.8405 52.6035 34.0127 52.6703C34.1823 52.7297 34.3369 52.8255 34.4656 52.951C34.444 53.0157 34.4009 53.1236 34.3578 53.2316C34.3146 53.3611 34.2931 53.469 34.2715 53.5554H34.2068C34.1515 53.361 34.0387 53.1879 33.8833 53.0589C33.7354 52.9413 33.5543 52.8734 33.3656 52.8646C33.1351 52.8643 32.9125 52.9488 32.7402 53.1021C32.6555 53.1823 32.5887 53.2796 32.5441 53.3875C32.4995 53.4953 32.4781 53.6114 32.4814 53.7281C32.4771 53.9173 32.5278 54.1037 32.6273 54.2647C32.7269 54.4256 32.871 54.5542 33.0421 54.6347C33.3872 54.8074 33.7754 54.9801 34.0989 55.1528C34.2775 55.2584 34.4241 55.4106 34.5229 55.5931C34.6217 55.7756 34.669 55.9816 34.6597 56.189C34.6694 56.428 34.6261 56.6661 34.5329 56.8864C34.4396 57.1066 34.2988 57.3034 34.1205 57.4626C33.7775 57.7695 33.3293 57.9319 32.8696 57.916C32.6548 57.9125 32.4426 57.8686 32.2441 57.7864C32.0459 57.7155 31.8682 57.5969 31.7265 57.4411C31.748 57.3547 31.7912 57.2684 31.8127 57.1604C31.8712 57.0459 31.9077 56.9214 31.9206 56.7934Z" fill="white"/>
<path d="M37.3126 57.9589C37.0077 57.9705 36.7044 57.9101 36.4271 57.7826C36.1498 57.6551 35.9064 57.4641 35.7166 57.225C35.3068 56.7285 35.1127 56.0809 35.1342 55.2606C35.1342 54.4402 35.3499 53.7926 35.7597 53.3177C35.9439 53.0831 36.18 52.8946 36.4496 52.7672C36.7191 52.6398 37.0146 52.577 37.3126 52.5838C37.5955 52.575 37.8772 52.6241 38.1405 52.728C38.4038 52.8319 38.6432 52.9885 38.8439 53.1882C39.3184 53.6415 39.5557 54.3107 39.5773 55.1526C39.6259 55.8796 39.4115 56.5999 38.9733 57.1818C38.7713 57.4264 38.5175 57.6229 38.2303 57.7573C37.9431 57.8917 37.6297 57.9606 37.3126 57.9589ZM38.9733 55.1958C38.9712 54.8845 38.9423 54.5739 38.8871 54.2676C38.8374 54.0049 38.7346 53.7551 38.5851 53.5336C38.4512 53.3131 38.2662 53.128 38.0459 52.9939C37.8456 52.8678 37.614 52.8005 37.3773 52.7996C37.133 52.7977 36.8925 52.8606 36.6803 52.9819C36.4681 53.1033 36.2919 53.2787 36.1695 53.4904C35.843 54.0448 35.6855 54.6826 35.7166 55.3253C35.7166 56.0593 35.8676 56.6421 36.1911 57.0739C36.3231 57.2602 36.4976 57.4123 36.7002 57.5174C36.9028 57.6226 37.1275 57.6777 37.3557 57.6783C37.8949 57.6783 38.3263 57.3761 38.6283 56.8148C38.8805 56.3519 39.0069 55.8309 38.9949 55.3037C38.9734 55.2821 38.9733 55.2606 38.9733 55.1958Z" fill="white"/>
<path d="M40.936 52.6271C40.9792 54.5483 41.0007 55.4981 41.0223 57.4194H41.2595C41.3674 57.4194 41.5399 57.3978 41.7772 57.3762C42.0144 57.3546 42.187 57.3546 42.2948 57.333C42.4252 57.3293 42.555 57.3149 42.683 57.2899C42.7824 57.2678 42.8834 57.2534 42.985 57.2467C42.9799 57.2831 42.9727 57.3191 42.9634 57.3546V57.4626C42.9583 57.5139 42.9657 57.5658 42.985 57.6137C42.985 57.6568 43.0065 57.6784 43.0065 57.7C41.9713 57.7216 41.4537 57.7432 40.4184 57.7648C40.3753 55.714 40.3753 54.6778 40.3321 52.6055C40.3753 52.6055 40.4184 52.6271 40.4615 52.6271H40.6341C40.6996 52.6333 40.7656 52.6259 40.8282 52.6055C40.8427 52.6183 40.8603 52.627 40.8792 52.6308C40.8981 52.6346 40.9177 52.6333 40.936 52.6271Z" fill="white"/>
<path d="M43.8908 52.5622C43.934 53.7279 43.9555 54.3108 43.9987 55.4549C44.0202 56.1457 44.1496 56.6422 44.3653 56.9444C44.6241 57.2682 45.0339 57.4193 45.6378 57.3977C45.8696 57.4036 46.0988 57.3489 46.303 57.2392C46.5073 57.1294 46.6794 56.9683 46.8025 56.7717C47.0182 56.4047 47.1045 55.9082 47.0829 55.2606C47.0182 54.1381 46.9966 53.5768 46.9535 52.4327C47.0168 52.4494 47.0822 52.4567 47.1476 52.4543C47.2339 52.4327 47.2554 52.4327 47.3417 52.4111C47.4064 53.62 47.428 54.2029 47.4927 55.4117C47.5358 56.1457 47.3633 56.707 47.0182 57.1171C46.8321 57.3269 46.6026 57.4935 46.3456 57.6054C46.0885 57.7173 45.8102 57.7716 45.53 57.7647C45.2239 57.7876 44.9163 57.7509 44.6241 57.6568C44.3768 57.575 44.1491 57.4427 43.9555 57.2682C43.7367 57.0587 43.5863 56.7878 43.5242 56.4911C43.4508 56.1866 43.4075 55.8757 43.3948 55.5628C43.3516 54.354 43.3301 53.7495 43.3085 52.5407C43.3665 52.5435 43.4241 52.5507 43.481 52.5622H43.6104C43.6759 52.5685 43.742 52.5611 43.8046 52.5407C43.8299 52.5578 43.8604 52.5655 43.8908 52.5622Z" fill="white"/>
<path d="M49.9946 52.627C50.124 54.5483 50.1671 55.5197 50.2965 57.4409C50.2452 57.446 50.1934 57.4386 50.1456 57.4193H49.9946C49.9362 57.4158 49.8777 57.4232 49.822 57.4409C49.7805 57.4556 49.7367 57.4629 49.6926 57.4625C49.5848 55.5413 49.5201 54.5699 49.4122 52.6486C49.0456 52.6702 48.7868 52.6918 48.6574 52.7134C48.5064 52.735 48.2476 52.7781 47.9025 52.8213C47.8991 52.784 47.9066 52.7465 47.924 52.7134V52.5838C47.9297 52.5464 47.922 52.5083 47.9025 52.4759C47.8974 52.4395 47.8902 52.4035 47.8809 52.368C49.3044 52.3032 50.0162 52.26 51.4396 52.1521V52.3896C51.4575 52.46 51.4647 52.5328 51.4612 52.6054C51.2461 52.5859 51.0301 52.5787 50.8142 52.5838C50.5338 52.6054 50.275 52.6054 49.9946 52.627Z" fill="white"/>
<path d="M52.669 57.2682C52.518 55.1959 52.4317 54.1597 52.2808 52.1089C52.325 52.1055 52.3694 52.1129 52.4102 52.1305H52.5827C52.669 52.1305 52.7337 52.1089 52.7768 52.1089C52.8106 52.0933 52.8475 52.0859 52.8847 52.0873C53.0356 54.1597 53.1219 55.1959 53.2729 57.2466H52.9709C52.9062 57.2466 52.8631 57.2682 52.7984 57.2682H52.669Z" fill="white"/>
<path d="M56.314 57.0739C56.0093 57.1083 55.7009 57.0716 55.4128 56.9667C55.1246 56.8618 54.8647 56.6917 54.6532 56.4695C54.2003 56.0162 53.9631 55.3901 53.8984 54.5698C53.8109 53.8683 53.9712 53.1582 54.3513 52.5622C54.5156 52.3128 54.7355 52.1049 54.9938 51.955C55.252 51.8052 55.5415 51.7175 55.8395 51.6988C56.1189 51.6653 56.4021 51.6882 56.6725 51.7661C56.9429 51.8439 57.195 51.9752 57.4139 52.1521C57.9316 52.5622 58.212 53.2099 58.2982 54.0517C58.4075 54.772 58.2544 55.5075 57.8669 56.1241C57.7086 56.4003 57.4834 56.6321 57.212 56.7981C56.9406 56.9641 56.6317 57.059 56.314 57.0739ZM57.7375 54.1813C57.7131 53.8737 57.6553 53.5696 57.5649 53.2746C57.4864 53.0171 57.3622 52.7758 57.1983 52.5622C57.0422 52.3567 56.8435 52.1873 56.6159 52.0657C56.4025 51.9589 56.1634 51.914 55.9258 51.9362C55.6804 51.952 55.4442 52.0348 55.2426 52.1756C55.0411 52.3164 54.882 52.5099 54.7827 52.7349C54.5238 53.2099 54.4376 53.8359 54.5023 54.613C54.567 55.347 54.7611 55.9082 55.1277 56.3184C55.2727 56.4942 55.4588 56.6316 55.6694 56.7182C55.8801 56.8048 56.1089 56.838 56.3355 56.8149C56.8747 56.7717 57.2845 56.4479 57.5434 55.8435C57.7524 55.3614 57.8341 54.8336 57.7806 54.3108C57.759 54.2676 57.759 54.2244 57.7375 54.1813Z" fill="white"/>
<path d="M62.9354 51.0513C63.1942 53.102 63.3236 54.1382 63.5608 56.189C63.4746 56.189 63.4314 56.2106 63.3452 56.2106C63.2227 56.0531 63.0773 55.9148 62.9138 55.8004C61.5334 54.5052 60.8433 53.8576 59.4845 52.5624H59.4198C59.5923 54.1814 59.6786 55.0017 59.8512 56.6207H59.6355C59.5983 56.6193 59.5614 56.6267 59.5276 56.6423C59.5014 56.6574 59.4716 56.6648 59.4414 56.6639C59.2257 54.5915 59.1178 53.577 58.9022 51.5046C58.9945 51.4867 59.0886 51.4794 59.1825 51.483C60.6492 52.8862 61.404 53.5985 62.9138 54.9801H62.9785C62.7844 53.4258 62.6981 52.6487 62.504 51.116H62.6981C62.7413 51.116 62.7628 51.0944 62.806 51.0944C62.8922 51.0729 62.9138 51.0729 62.9354 51.0513Z" fill="white"/>
<path d="M64.6608 55.0233H64.7255C64.8703 55.2232 65.0536 55.392 65.2647 55.5198C65.4839 55.6325 65.7316 55.6776 65.9765 55.6493C66.1112 55.6343 66.2409 55.5897 66.3564 55.5188C66.472 55.4479 66.5706 55.3524 66.6451 55.2391C66.8002 54.9957 66.8615 54.7042 66.8176 54.4188C66.7953 54.232 66.7176 54.0561 66.5946 53.9138C66.4716 53.7715 66.3089 53.6692 66.1274 53.6201C65.7608 53.4906 65.351 53.4042 65.0059 53.2531C64.8074 53.1632 64.6366 53.0217 64.5114 52.8432C64.3862 52.6648 64.3112 52.4559 64.2942 52.2385C64.2542 52.0358 64.2627 51.8265 64.3189 51.6277C64.3751 51.4288 64.4775 51.2461 64.6177 51.0944C64.888 50.8044 65.2577 50.6271 65.6529 50.5979C65.8325 50.5727 66.0151 50.58 66.1921 50.6195C66.3667 50.6578 66.5341 50.7233 66.6882 50.8138C66.6599 50.913 66.6383 51.0139 66.6235 51.116C66.5998 51.2298 66.5854 51.3453 66.5804 51.4614H66.5157C66.4275 51.2851 66.2934 51.1359 66.1274 51.0297C65.9419 50.9256 65.7257 50.8902 65.5167 50.9297C65.3077 50.9691 65.1192 51.081 64.9843 51.2455C64.913 51.3402 64.8611 51.4481 64.8315 51.5629C64.8019 51.6778 64.7952 51.7973 64.8118 51.9147C64.8328 52.1045 64.9096 52.2837 65.0324 52.4298C65.1553 52.5758 65.3187 52.682 65.502 52.735C65.8686 52.8646 66.2784 52.9725 66.6235 53.0804C66.8173 53.1588 66.9861 53.2888 67.1115 53.4562C67.2369 53.6236 67.3143 53.8221 67.3352 54.0303C67.375 54.2651 67.3649 54.5057 67.3054 54.7363C67.246 54.9669 67.1385 55.1824 66.9902 55.3686C66.6998 55.7232 66.2811 55.9483 65.8255 55.9947C65.609 56.0221 65.3893 56.0074 65.1784 55.9515C64.9726 55.9141 64.7796 55.825 64.6177 55.6925C64.6392 55.6061 64.6392 55.5198 64.6608 55.3902V55.0233Z" fill="white"/>
</svg>
