<svg xmlns="http://www.w3.org/2000/svg" width="27.857" height="30" viewBox="0 0 27.857 30"><path d="M66.143,27.857h4.821V23.036H66.143Zm5.893,0h5.357V23.036H72.036Zm-5.893-5.893h4.821V16.607H66.143Zm5.893,0h5.357V16.607H72.036Zm-5.893-6.429h4.821V10.714H66.143ZM78.464,27.857h5.357V23.036H78.464ZM72.036,15.536h5.357V10.714H72.036ZM84.893,27.857h4.821V23.036H84.893Zm-6.429-5.893h5.357V16.607H78.464ZM72.571,7.5V2.679a.543.543,0,0,0-.536-.536H70.964a.543.543,0,0,0-.536.536V7.5a.543.543,0,0,0,.536.536h1.071a.543.543,0,0,0,.536-.536ZM84.893,21.964h4.821V16.607H84.893Zm-6.429-6.429h5.357V10.714H78.464Zm6.429,0h4.821V10.714H84.893ZM85.429,7.5V2.679a.543.543,0,0,0-.536-.536H83.821a.543.543,0,0,0-.536.536V7.5a.543.543,0,0,0,.536.536h1.071a.543.543,0,0,0,.536-.536Zm6.429-1.071V27.857A2.173,2.173,0,0,1,89.714,30H66.143A2.173,2.173,0,0,1,64,27.857V6.429a2.059,2.059,0,0,1,.636-1.507,2.059,2.059,0,0,1,1.507-.636h2.143V2.679A2.579,2.579,0,0,1,69.073.787,2.579,2.579,0,0,1,70.964,0h1.071a2.579,2.579,0,0,1,1.892.787,2.579,2.579,0,0,1,.787,1.892V4.286h6.429V2.679A2.579,2.579,0,0,1,81.93.787,2.579,2.579,0,0,1,83.821,0h1.071a2.579,2.579,0,0,1,1.892.787,2.579,2.579,0,0,1,.787,1.892V4.286h2.143a2.059,2.059,0,0,1,1.507.636A2.059,2.059,0,0,1,91.857,6.429Z" transform="translate(-64)" fill="#333"/></svg>