<svg xmlns="http://www.w3.org/2000/svg" width="25.714" height="30" viewBox="0 0 25.714 30"><path d="M138.714,6.429V4.286h-2.143V6.429Zm2.143,2.143V6.429h-2.143V8.571Zm-2.143,2.143V8.571h-2.143v2.143Zm2.143,2.143V10.714h-2.143v2.143Zm11.719-6.5a3.9,3.9,0,0,1,.8,1.272,3.865,3.865,0,0,1,.335,1.473V28.393A1.6,1.6,0,0,1,152.107,30h-22.5A1.6,1.6,0,0,1,128,28.393V1.607a1.55,1.55,0,0,1,.469-1.138A1.55,1.55,0,0,1,129.607,0h15a3.865,3.865,0,0,1,1.473.335,3.9,3.9,0,0,1,1.272.8Zm-7.433-4.085V8.571h6.295a1.829,1.829,0,0,0-.368-.686l-5.24-5.24A1.828,1.828,0,0,0,145.143,2.277Zm6.429,25.58V10.714h-6.964A1.6,1.6,0,0,1,143,9.107V2.143h-2.143V4.286h-2.143V2.143h-8.571V27.857Zm-10.5-12.07,1.791,5.843A3.061,3.061,0,0,1,143,22.5a2.773,2.773,0,0,1-1.214,2.3,5.628,5.628,0,0,1-6.144,0,2.773,2.773,0,0,1-1.214-2.3,3.06,3.06,0,0,1,.134-.871q.352-1.055,2.009-6.629V12.857h2.143V15h1.323a1.046,1.046,0,0,1,.653.218A1.066,1.066,0,0,1,141.075,15.787Zm-2.36,7.785a3.32,3.32,0,0,0,1.515-.318q.628-.318.628-.753t-.628-.753a3.767,3.767,0,0,0-3.03,0q-.628.318-.628.753t.628.753A3.32,3.32,0,0,0,138.714,23.571Z" transform="translate(-128)"/></svg>