<svg xmlns="http://www.w3.org/2000/svg" width="35.455" height="30" viewBox="0 0 35.455 30"><path d="M80.364,147.091v8.182A2.765,2.765,0,0,1,77.636,158H66.727A2.765,2.765,0,0,1,64,155.273v-8.182a2.765,2.765,0,0,1,2.727-2.727H77.636a2.765,2.765,0,0,1,2.727,2.727Zm0-16.364v8.182a2.765,2.765,0,0,1-2.727,2.727H66.727A2.765,2.765,0,0,1,64,138.909v-8.182A2.765,2.765,0,0,1,66.727,128H77.636a2.765,2.765,0,0,1,2.727,2.727Zm19.091,16.364v8.182A2.765,2.765,0,0,1,96.727,158H85.818a2.765,2.765,0,0,1-2.727-2.727v-8.182a2.765,2.765,0,0,1,2.727-2.727H96.727a2.765,2.765,0,0,1,2.727,2.727Zm0-16.364v8.182a2.765,2.765,0,0,1-2.727,2.727H85.818a2.765,2.765,0,0,1-2.727-2.727v-8.182A2.765,2.765,0,0,1,85.818,128H96.727a2.765,2.765,0,0,1,2.727,2.727Z" transform="translate(-64 -128)"/></svg>