<svg xmlns="http://www.w3.org/2000/svg" width="36.938" height="30" viewBox="0 0 36.938 30"><path d="M144.938,259.563a15.863,15.863,0,0,1-3.8,3.914q.023.328.023.984a21.506,21.506,0,0,1-.891,6.082,21.98,21.98,0,0,1-2.707,5.824,22.9,22.9,0,0,1-4.324,4.934,19.253,19.253,0,0,1-6.047,3.422,22.13,22.13,0,0,1-7.57,1.277A21.022,21.022,0,0,1,108,282.6a16.2,16.2,0,0,0,1.828.094,14.822,14.822,0,0,0,9.4-3.234,7.586,7.586,0,0,1-7.078-5.25,9.59,9.59,0,0,0,1.43.117,7.832,7.832,0,0,0,1.992-.258,7.448,7.448,0,0,1-4.348-2.613,7.314,7.314,0,0,1-1.723-4.816v-.094a7.51,7.51,0,0,0,3.422.961,7.562,7.562,0,0,1-2.461-2.7,7.588,7.588,0,0,1,.117-7.43,21.46,21.46,0,0,0,6.9,5.59,21.094,21.094,0,0,0,8.707,2.332A8.409,8.409,0,0,1,126,263.57a7.578,7.578,0,0,1,13.1-5.18,14.844,14.844,0,0,0,4.8-1.828,7.35,7.35,0,0,1-3.328,4.172A15.084,15.084,0,0,0,144.938,259.563Z" transform="translate(-108 -256)"/></svg>