<svg xmlns="http://www.w3.org/2000/svg" width="25" height="30" viewBox="0 0 25 30"><path d="M281,152.824a5.659,5.659,0,0,1-1.221,3.652A3.658,3.658,0,0,1,276.84,158H260.16a3.658,3.658,0,0,1-2.939-1.523A5.659,5.659,0,0,1,256,152.824a28.057,28.057,0,0,1,.166-3.135,16.847,16.847,0,0,1,.615-2.969,9.883,9.883,0,0,1,1.143-2.559,5.468,5.468,0,0,1,1.836-1.738,5.073,5.073,0,0,1,2.627-.674,8.724,8.724,0,0,0,12.227,0,5.073,5.073,0,0,1,2.627.674,5.468,5.468,0,0,1,1.836,1.738,9.883,9.883,0,0,1,1.143,2.559,16.847,16.847,0,0,1,.615,2.969A28.057,28.057,0,0,1,281,152.824ZM276,135.5a7.5,7.5,0,1,1-2.2-5.3A7.226,7.226,0,0,1,276,135.5Z" transform="translate(-256 -128)" fill="#333"/></svg>