<svg xmlns="http://www.w3.org/2000/svg" width="42.669" height="30" viewBox="0 0 42.669 30"><path d="M16.88,286.524,28.4,280.571,16.88,274.548ZM21.285,266q4,0,7.726.107t5.464.226l1.738.1q.024,0,.4.036a5.31,5.31,0,0,1,.548.071q.167.036.56.107a3.317,3.317,0,0,1,.679.19q.286.119.667.31a4.577,4.577,0,0,1,.738.464,5.644,5.644,0,0,1,.69.631,4.548,4.548,0,0,1,.369.44,8,8,0,0,1,.69,1.393,9.066,9.066,0,0,1,.631,2.4q.19,1.524.3,3.25t.131,2.7v4.19a50.408,50.408,0,0,1-.429,6.9,9.5,9.5,0,0,1-.6,2.369,6.062,6.062,0,0,1-.762,1.464l-.333.4a5.647,5.647,0,0,1-.69.631,4.011,4.011,0,0,1-.738.452q-.381.179-.667.3a3.315,3.315,0,0,1-.679.19q-.393.071-.571.107t-.548.071q-.369.036-.393.036Q30.237,296,21.285,296q-4.929-.048-8.56-.155t-4.774-.179l-1.167-.1-.857-.1a11.31,11.31,0,0,1-1.3-.238,7.317,7.317,0,0,1-1.214-.5,4.762,4.762,0,0,1-1.345-.976,4.549,4.549,0,0,1-.369-.44,8,8,0,0,1-.69-1.393,9.066,9.066,0,0,1-.631-2.4q-.19-1.524-.3-3.25t-.131-2.7v-4.19a50.409,50.409,0,0,1,.429-6.9,9.5,9.5,0,0,1,.6-2.369,6.062,6.062,0,0,1,.762-1.464l.333-.4a5.644,5.644,0,0,1,.69-.631,4.577,4.577,0,0,1,.738-.464q.381-.19.667-.31a3.317,3.317,0,0,1,.679-.19q.393-.071.56-.107a5.31,5.31,0,0,1,.548-.071q.381-.036.4-.036Q12.332,266,21.285,266Z" transform="translate(0.05 -266)"/></svg>