<svg width="91" height="32" viewBox="0 0 91 32" fill="none" xmlns="http://www.w3.org/2000/svg">
<rect width="91" height="32" rx="4" fill="white"/>
<g clip-path="url(#clip0_31_354)">
<path d="M26.8962 26.0001C27.5057 26.0001 28 25.5059 28 24.8962V7.10383C28 6.49414 27.5057 6 26.8962 6H9.10383C8.49406 6 8 6.49414 8 7.10383V24.8962C8 25.5059 8.49406 26.0001 9.10383 26.0001H26.8962Z" fill="#395185"/>
<path d="M21.7996 26.0001V18.255H24.3994L24.7886 15.2367H21.7996V13.3095C21.7996 12.4356 22.0424 11.84 23.2956 11.84L24.8939 11.8393V9.13974C24.6174 9.10294 23.6686 9.02075 22.5649 9.02075C20.2603 9.02075 18.6827 10.4274 18.6827 13.0107V15.2367H16.0763V18.255H18.6827V26.0001H21.7996Z" fill="white"/>
</g>
<path d="M37.34 19.07C37.1867 19.07 37.0667 19.0267 36.98 18.94C36.8933 18.8533 36.85 18.73 36.85 18.57V12.45C36.85 12.29 36.8933 12.1667 36.98 12.08C37.0667 11.9933 37.19 11.95 37.35 11.95H40.94C41.0733 11.95 41.1733 11.9833 41.24 12.05C41.3067 12.11 41.34 12.2 41.34 12.32C41.34 12.4467 41.3067 12.5433 41.24 12.61C41.1733 12.6767 41.0733 12.71 40.94 12.71H37.78V15.07H40.74C40.8667 15.07 40.9633 15.1033 41.03 15.17C41.0967 15.2367 41.13 15.3267 41.13 15.44C41.13 15.5667 41.0967 15.6633 41.03 15.73C40.9633 15.7967 40.8667 15.83 40.74 15.83H37.78V18.57C37.78 18.9033 37.6333 19.07 37.34 19.07ZM43.5925 19.09C43.2592 19.09 42.9558 19.0233 42.6825 18.89C42.4158 18.7567 42.2058 18.5767 42.0525 18.35C41.9058 18.1233 41.8325 17.87 41.8325 17.59C41.8325 17.23 41.9225 16.9467 42.1025 16.74C42.2825 16.5333 42.5858 16.3867 43.0125 16.3C43.4392 16.2067 44.0125 16.16 44.7325 16.16H45.2025V16.74H44.7525C44.2392 16.74 43.8325 16.7633 43.5325 16.81C43.2392 16.8567 43.0325 16.94 42.9125 17.06C42.7925 17.1733 42.7325 17.3333 42.7325 17.54C42.7325 17.8 42.8225 18.0133 43.0025 18.18C43.1892 18.3467 43.4425 18.43 43.7625 18.43C44.0158 18.43 44.2392 18.37 44.4325 18.25C44.6258 18.1233 44.7792 17.9567 44.8925 17.75C45.0058 17.5367 45.0625 17.2933 45.0625 17.02V15.87C45.0625 15.4767 44.9825 15.1933 44.8225 15.02C44.6625 14.84 44.3925 14.75 44.0125 14.75C43.7925 14.75 43.5658 14.78 43.3325 14.84C43.0992 14.9 42.8558 14.9933 42.6025 15.12C42.5025 15.1667 42.4158 15.1833 42.3425 15.17C42.2692 15.15 42.2092 15.11 42.1625 15.05C42.1225 14.9833 42.0992 14.9133 42.0925 14.84C42.0925 14.76 42.1092 14.6833 42.1425 14.61C42.1825 14.5367 42.2492 14.4833 42.3425 14.45C42.6358 14.3033 42.9258 14.2 43.2125 14.14C43.5058 14.0733 43.7792 14.04 44.0325 14.04C44.4658 14.04 44.8225 14.11 45.1025 14.25C45.3825 14.3833 45.5925 14.5933 45.7325 14.88C45.8725 15.16 45.9425 15.52 45.9425 15.96V18.6C45.9425 18.7533 45.9058 18.87 45.8325 18.95C45.7592 19.03 45.6525 19.07 45.5125 19.07C45.3792 19.07 45.2725 19.03 45.1925 18.95C45.1192 18.87 45.0825 18.7533 45.0825 18.6V17.89H45.1725C45.1192 18.1367 45.0192 18.35 44.8725 18.53C44.7258 18.71 44.5425 18.85 44.3225 18.95C44.1092 19.0433 43.8658 19.09 43.5925 19.09ZM49.4845 19.09C48.9912 19.09 48.5645 18.9867 48.2045 18.78C47.8445 18.5667 47.5679 18.27 47.3745 17.89C47.1812 17.5033 47.0845 17.05 47.0845 16.53C47.0845 16.1433 47.1379 15.7967 47.2445 15.49C47.3579 15.1833 47.5179 14.9233 47.7245 14.71C47.9312 14.49 48.1812 14.3233 48.4745 14.21C48.7745 14.0967 49.1112 14.04 49.4845 14.04C49.7179 14.04 49.9645 14.0767 50.2245 14.15C50.4845 14.2233 50.7245 14.3433 50.9445 14.51C51.0179 14.5633 51.0645 14.6267 51.0845 14.7C51.1045 14.7667 51.1045 14.8367 51.0845 14.91C51.0712 14.9833 51.0379 15.0467 50.9845 15.1C50.9379 15.1467 50.8745 15.1733 50.7945 15.18C50.7212 15.1867 50.6412 15.1633 50.5545 15.11C50.3945 14.99 50.2245 14.9033 50.0445 14.85C49.8712 14.7967 49.7045 14.77 49.5445 14.77C49.2979 14.77 49.0779 14.81 48.8845 14.89C48.6979 14.97 48.5379 15.0867 48.4045 15.24C48.2779 15.3867 48.1812 15.57 48.1145 15.79C48.0479 16.0033 48.0145 16.2533 48.0145 16.54C48.0145 17.1067 48.1479 17.5533 48.4145 17.88C48.6812 18.2 49.0579 18.36 49.5445 18.36C49.7045 18.36 49.8712 18.3367 50.0445 18.29C50.2179 18.2367 50.3879 18.15 50.5545 18.03C50.6412 17.9767 50.7212 17.9567 50.7945 17.97C50.8679 17.9767 50.9279 18.0067 50.9745 18.06C51.0279 18.1067 51.0612 18.1667 51.0745 18.24C51.0879 18.3067 51.0812 18.3767 51.0545 18.45C51.0345 18.5233 50.9879 18.5833 50.9145 18.63C50.7012 18.79 50.4679 18.9067 50.2145 18.98C49.9612 19.0533 49.7179 19.09 49.4845 19.09ZM54.1753 19.09C53.6486 19.09 53.1953 18.99 52.8153 18.79C52.442 18.5833 52.152 18.2933 51.9453 17.92C51.7386 17.54 51.6353 17.0933 51.6353 16.58C51.6353 16.0733 51.7353 15.63 51.9353 15.25C52.142 14.87 52.422 14.5733 52.7753 14.36C53.1353 14.1467 53.5453 14.04 54.0053 14.04C54.332 14.04 54.6253 14.0967 54.8853 14.21C55.152 14.3167 55.3786 14.4733 55.5653 14.68C55.752 14.8867 55.892 15.14 55.9853 15.44C56.0853 15.7333 56.1353 16.0667 56.1353 16.44C56.1353 16.5467 56.102 16.63 56.0353 16.69C55.9753 16.7433 55.8853 16.77 55.7653 16.77H52.3453V16.19H55.5353L55.3653 16.33C55.3653 15.9833 55.312 15.69 55.2053 15.45C55.1053 15.2033 54.9553 15.0167 54.7553 14.89C54.562 14.7633 54.3186 14.7 54.0253 14.7C53.7053 14.7 53.432 14.7767 53.2053 14.93C52.9786 15.0767 52.8053 15.2867 52.6853 15.56C52.5653 15.8267 52.5053 16.1367 52.5053 16.49V16.55C52.5053 17.15 52.6486 17.6033 52.9353 17.91C53.222 18.2167 53.6353 18.37 54.1753 18.37C54.3886 18.37 54.6053 18.3433 54.8253 18.29C55.052 18.2367 55.2686 18.14 55.4753 18C55.5753 17.94 55.6653 17.9133 55.7453 17.92C55.832 17.92 55.902 17.9467 55.9553 18C56.0086 18.0467 56.042 18.1067 56.0553 18.18C56.0686 18.2467 56.0586 18.32 56.0253 18.4C55.992 18.48 55.9286 18.55 55.8353 18.61C55.6153 18.7633 55.352 18.8833 55.0453 18.97C54.7453 19.05 54.4553 19.09 54.1753 19.09ZM59.8171 19.09C59.3771 19.09 59.0004 18.98 58.6871 18.76C58.3738 18.54 58.1638 18.2433 58.0571 17.87L58.1671 17.72V18.6C58.1671 18.7533 58.1271 18.87 58.0471 18.95C57.9738 19.03 57.8638 19.07 57.7171 19.07C57.5771 19.07 57.4671 19.03 57.3871 18.95C57.3071 18.87 57.2671 18.7533 57.2671 18.6V12.34C57.2671 12.1867 57.3071 12.0733 57.3871 12C57.4671 11.92 57.5771 11.88 57.7171 11.88C57.8638 11.88 57.9771 11.92 58.0571 12C58.1371 12.0733 58.1771 12.1867 58.1771 12.34V15.23H58.0671C58.1738 14.87 58.3838 14.5833 58.6971 14.37C59.0104 14.15 59.3838 14.04 59.8171 14.04C60.2504 14.04 60.6271 14.1433 60.9471 14.35C61.2738 14.55 61.5238 14.84 61.6971 15.22C61.8771 15.5933 61.9671 16.04 61.9671 16.56C61.9671 17.0733 61.8771 17.5233 61.6971 17.91C61.5171 18.29 61.2671 18.5833 60.9471 18.79C60.6271 18.99 60.2504 19.09 59.8171 19.09ZM59.6071 18.37C59.8938 18.37 60.1438 18.3 60.3571 18.16C60.5771 18.02 60.7471 17.8167 60.8671 17.55C60.9871 17.2833 61.0471 16.9533 61.0471 16.56C61.0471 15.9733 60.9171 15.5267 60.6571 15.22C60.3971 14.9133 60.0471 14.76 59.6071 14.76C59.3138 14.76 59.0571 14.83 58.8371 14.97C58.6238 15.1033 58.4571 15.3033 58.3371 15.57C58.2238 15.8367 58.1671 16.1667 58.1671 16.56C58.1671 17.1467 58.2971 17.5967 58.5571 17.91C58.8171 18.2167 59.1671 18.37 59.6071 18.37ZM65.2063 19.09C64.7263 19.09 64.3096 18.9867 63.9563 18.78C63.6029 18.5733 63.3296 18.28 63.1363 17.9C62.9429 17.52 62.8463 17.0733 62.8463 16.56C62.8463 16.1733 62.8996 15.8267 63.0063 15.52C63.1196 15.2067 63.2796 14.94 63.4863 14.72C63.6929 14.5 63.9396 14.3333 64.2263 14.22C64.5196 14.1 64.8463 14.04 65.2063 14.04C65.6863 14.04 66.1029 14.1433 66.4563 14.35C66.8096 14.5567 67.0829 14.85 67.2763 15.23C67.4696 15.6033 67.5663 16.0467 67.5663 16.56C67.5663 16.9467 67.5096 17.2967 67.3963 17.61C67.2896 17.9233 67.1329 18.19 66.9263 18.41C66.7196 18.63 66.4696 18.8 66.1763 18.92C65.8896 19.0333 65.5663 19.09 65.2063 19.09ZM65.2063 18.37C65.4996 18.37 65.7529 18.3 65.9663 18.16C66.1863 18.02 66.3529 17.8167 66.4663 17.55C66.5863 17.2833 66.6463 16.9533 66.6463 16.56C66.6463 15.9733 66.5163 15.5267 66.2563 15.22C65.9963 14.9133 65.6463 14.76 65.2063 14.76C64.9196 14.76 64.6663 14.83 64.4463 14.97C64.2329 15.1033 64.0663 15.3033 63.9463 15.57C63.8263 15.8367 63.7663 16.1667 63.7663 16.56C63.7663 17.1467 63.8963 17.5967 64.1563 17.91C64.4229 18.2167 64.7729 18.37 65.2063 18.37ZM70.802 19.09C70.322 19.09 69.9053 18.9867 69.552 18.78C69.1986 18.5733 68.9253 18.28 68.732 17.9C68.5386 17.52 68.442 17.0733 68.442 16.56C68.442 16.1733 68.4953 15.8267 68.602 15.52C68.7153 15.2067 68.8753 14.94 69.082 14.72C69.2886 14.5 69.5353 14.3333 69.822 14.22C70.1153 14.1 70.442 14.04 70.802 14.04C71.282 14.04 71.6986 14.1433 72.052 14.35C72.4053 14.5567 72.6786 14.85 72.872 15.23C73.0653 15.6033 73.162 16.0467 73.162 16.56C73.162 16.9467 73.1053 17.2967 72.992 17.61C72.8853 17.9233 72.7286 18.19 72.522 18.41C72.3153 18.63 72.0653 18.8 71.772 18.92C71.4853 19.0333 71.162 19.09 70.802 19.09ZM70.802 18.37C71.0953 18.37 71.3486 18.3 71.562 18.16C71.782 18.02 71.9486 17.8167 72.062 17.55C72.182 17.2833 72.242 16.9533 72.242 16.56C72.242 15.9733 72.112 15.5267 71.852 15.22C71.592 14.9133 71.242 14.76 70.802 14.76C70.5153 14.76 70.262 14.83 70.042 14.97C69.8286 15.1033 69.662 15.3033 69.542 15.57C69.422 15.8367 69.362 16.1667 69.362 16.56C69.362 17.1467 69.492 17.5967 69.752 17.91C70.0186 18.2167 70.3686 18.37 70.802 18.37ZM74.7777 19.07C74.6377 19.07 74.5277 19.03 74.4477 18.95C74.3677 18.87 74.3277 18.7533 74.3277 18.6V12.34C74.3277 12.1867 74.3677 12.0733 74.4477 12C74.5277 11.92 74.6377 11.88 74.7777 11.88C74.9243 11.88 75.0377 11.92 75.1177 12C75.1977 12.0733 75.2377 12.1867 75.2377 12.34V16.28H75.2577L77.2177 14.37C77.3177 14.27 77.4077 14.1933 77.4877 14.14C77.5677 14.0867 77.671 14.06 77.7977 14.06C77.9243 14.06 78.021 14.0933 78.0877 14.16C78.1543 14.22 78.1877 14.3 78.1877 14.4C78.1877 14.4933 78.141 14.5867 78.0477 14.68L75.9677 16.7V16.25L78.2377 18.44C78.331 18.5333 78.3743 18.63 78.3677 18.73C78.3677 18.83 78.331 18.9133 78.2577 18.98C78.191 19.04 78.101 19.07 77.9877 19.07C77.8543 19.07 77.7443 19.0433 77.6577 18.99C77.5777 18.9367 77.4843 18.8533 77.3777 18.74L75.2577 16.74H75.2377V18.6C75.2377 18.9133 75.0843 19.07 74.7777 19.07Z" fill="black"/>
<defs>
<clipPath id="clip0_31_354">
<rect width="20" height="20" fill="white" transform="translate(8 6)"/>
</clipPath>
</defs>
</svg>
