<svg width="94" height="32" viewBox="0 0 94 32" fill="none" xmlns="http://www.w3.org/2000/svg">
<rect width="94" height="32" rx="4" fill="white"/>
<path d="M18.0033 6C13.8284 6 12.6074 6.00431 12.37 6.024C11.5133 6.09524 10.9801 6.23017 10.3993 6.51943C9.9517 6.74176 9.59869 6.99947 9.25029 7.36073C8.6158 8.01956 8.23126 8.83009 8.09205 9.79355C8.02437 10.2613 8.00468 10.3567 8.00068 12.7458C7.99915 13.5422 8.00068 14.5903 8.00068 15.9961C8.00068 20.1687 8.0053 21.3888 8.02529 21.6258C8.09451 22.4597 8.22526 22.9844 8.50213 23.5583C9.03126 24.6568 10.0418 25.4815 11.2324 25.7892C11.6446 25.8954 12.0999 25.9538 12.6844 25.9815C12.9321 25.9923 15.4562 26 17.9819 26C20.5076 26 23.0332 25.9969 23.2747 25.9846C23.9515 25.9528 24.3445 25.9 24.7791 25.7877C25.3694 25.6362 25.9195 25.3577 26.3911 24.9716C26.8627 24.5855 27.2443 24.101 27.5093 23.5521C27.7808 22.9921 27.9185 22.4474 27.9808 21.657C27.9943 21.4847 28 18.7372 28 15.9935C28 13.2492 27.9938 10.5068 27.9803 10.3345C27.9172 9.53138 27.7796 8.99133 27.4993 8.42051C27.2694 7.95324 27.014 7.60429 26.6433 7.24749C25.9819 6.61544 25.1728 6.23079 24.2086 6.0917C23.7414 6.02416 23.6484 6.00415 21.258 6H18.0033Z" fill="url(#paint0_radial_31_360)"/>
<path d="M18.0033 6C13.8284 6 12.6074 6.00431 12.37 6.024C11.5133 6.09524 10.9801 6.23017 10.3993 6.51943C9.9517 6.74176 9.59869 6.99947 9.25029 7.36073C8.6158 8.01956 8.23126 8.83009 8.09205 9.79355C8.02437 10.2613 8.00468 10.3567 8.00068 12.7458C7.99915 13.5422 8.00068 14.5903 8.00068 15.9961C8.00068 20.1687 8.0053 21.3888 8.02529 21.6258C8.09451 22.4597 8.22526 22.9844 8.50213 23.5583C9.03126 24.6568 10.0418 25.4815 11.2324 25.7892C11.6446 25.8954 12.0999 25.9538 12.6844 25.9815C12.9321 25.9923 15.4562 26 17.9819 26C20.5076 26 23.0332 25.9969 23.2747 25.9846C23.9515 25.9528 24.3445 25.9 24.7791 25.7877C25.3694 25.6362 25.9195 25.3577 26.3911 24.9716C26.8627 24.5855 27.2443 24.101 27.5093 23.5521C27.7808 22.9921 27.9185 22.4474 27.9808 21.657C27.9943 21.4847 28 18.7372 28 15.9935C28 13.2492 27.9938 10.5068 27.9803 10.3345C27.9172 9.53138 27.7796 8.99133 27.4993 8.42051C27.2694 7.95324 27.014 7.60429 26.6433 7.24749C25.9819 6.61544 25.1728 6.23079 24.2086 6.0917C23.7414 6.02416 23.6484 6.00415 21.258 6H18.0033Z" fill="url(#paint1_radial_31_360)"/>
<path d="M17.9986 8.61572C15.9935 8.61572 15.7418 8.62449 14.9543 8.66034C14.1683 8.69635 13.6318 8.82082 13.1623 9.00345C12.6767 9.19208 12.2648 9.44441 11.8544 9.85506C11.4437 10.2656 11.1915 10.6776 11.0023 11.1632C10.8192 11.6329 10.6946 12.1697 10.6593 12.9556C10.6242 13.7434 10.615 13.9953 10.615 16.001C10.615 18.0067 10.6239 18.2576 10.6596 19.0454C10.6957 19.8316 10.8202 20.3683 11.0026 20.8378C11.1913 21.3236 11.4436 21.7356 11.8541 22.1461C12.2643 22.5569 12.6763 22.8098 13.1616 22.9985C13.6313 23.1811 14.168 23.3056 14.9538 23.3416C15.7414 23.3774 15.9929 23.3862 17.9979 23.3862C20.0032 23.3862 20.2541 23.3774 21.0416 23.3416C21.8276 23.3056 22.3648 23.1811 22.8345 22.9985C23.32 22.8098 23.7313 22.5569 24.1415 22.1461C24.5522 21.7356 24.8044 21.3236 24.9936 20.838C25.1751 20.3683 25.2997 19.8314 25.3367 19.0455C25.372 18.2578 25.3813 18.0067 25.3813 16.001C25.3813 13.9953 25.372 13.7435 25.3367 12.9558C25.2997 12.1696 25.1751 11.6329 24.9936 11.1633C24.8044 10.6776 24.5522 10.2656 24.1415 9.85506C23.7308 9.44425 23.3201 9.19193 22.834 9.00345C22.3634 8.82082 21.8265 8.69635 21.0405 8.66034C20.253 8.62449 20.0023 8.61572 17.9965 8.61572H17.9986ZM17.3363 9.9466C17.5329 9.9463 17.7522 9.9466 17.9986 9.9466C19.97 9.9466 20.2036 9.95368 20.9821 9.98907C21.702 10.022 22.0926 10.1423 22.3529 10.2434C22.6975 10.3773 22.9431 10.5373 23.2014 10.7958C23.4598 11.0542 23.6197 11.3004 23.7539 11.6451C23.8549 11.9051 23.9754 12.2959 24.0081 13.0159C24.0435 13.7945 24.0512 14.0283 24.0512 15.9993C24.0512 17.9702 24.0435 18.2041 24.0081 18.9826C23.9752 19.7027 23.8549 20.0935 23.7539 20.3535C23.6201 20.6981 23.4598 20.9435 23.2014 21.2019C22.943 21.4603 22.6976 21.6204 22.3529 21.7542C22.093 21.8558 21.702 21.9758 20.9821 22.0087C20.2038 22.0441 19.97 22.0518 17.9986 22.0518C16.0272 22.0518 15.7935 22.0441 15.0152 22.0087C14.2953 21.9755 13.9046 21.8552 13.6442 21.7541C13.2997 21.6202 13.0536 21.4602 12.7952 21.2017C12.5368 20.9432 12.3768 20.6977 12.2427 20.3529C12.1416 20.0928 12.0212 19.702 11.9884 18.982C11.953 18.2035 11.9459 17.9696 11.9459 15.9974C11.9459 14.0253 11.953 13.7926 11.9884 13.0141C12.0213 12.294 12.1416 11.9032 12.2427 11.6429C12.3765 11.2983 12.5368 11.0521 12.7952 10.7936C13.0536 10.5351 13.2997 10.3751 13.6442 10.2409C13.9045 10.1394 14.2953 10.0194 15.0152 9.9863C15.6963 9.95553 15.9603 9.9463 17.3363 9.94476V9.9466ZM21.9398 11.1729C21.7645 11.1729 21.5932 11.2248 21.4475 11.3222C21.3018 11.4196 21.1882 11.5581 21.1212 11.72C21.0541 11.882 21.0366 12.0602 21.0708 12.2321C21.105 12.404 21.1894 12.5619 21.3134 12.6859C21.4373 12.8098 21.5952 12.8942 21.7671 12.9283C21.939 12.9625 22.1171 12.9449 22.279 12.8778C22.4409 12.8106 22.5793 12.697 22.6766 12.5512C22.7739 12.4054 22.8258 12.2341 22.8257 12.0588C22.8257 11.5695 22.4289 11.1726 21.9398 11.1726V11.1729ZM17.9986 12.2083C15.9047 12.2083 14.2071 13.9065 14.2071 16.001C14.2071 18.0954 15.9047 19.7928 17.9986 19.7928C20.0926 19.7928 21.7898 18.0954 21.7898 16.001C21.7898 13.9065 20.0924 12.2083 17.9985 12.2083H17.9986ZM17.9986 13.5392C19.3578 13.5392 20.4597 14.6413 20.4597 16.001C20.4597 17.3605 19.3578 18.4627 17.9986 18.4627C16.6394 18.4627 15.5376 17.3605 15.5376 16.001C15.5376 14.6413 16.6394 13.5392 17.9986 13.5392Z" fill="white"/>
<path d="M37.31 19.07C37.1633 19.07 37.05 19.03 36.97 18.95C36.89 18.8633 36.85 18.7433 36.85 18.59V12.36C36.85 12.2 36.89 12.08 36.97 12C37.05 11.92 37.1633 11.88 37.31 11.88C37.4633 11.88 37.58 11.92 37.66 12C37.74 12.08 37.78 12.2 37.78 12.36V18.59C37.78 18.7433 37.74 18.8633 37.66 18.95C37.5867 19.03 37.47 19.07 37.31 19.07ZM39.7972 19.07C39.6572 19.07 39.5472 19.03 39.4672 18.95C39.3872 18.87 39.3472 18.7533 39.3472 18.6V14.52C39.3472 14.3667 39.3872 14.2533 39.4672 14.18C39.5472 14.1 39.6572 14.06 39.7972 14.06C39.9372 14.06 40.0439 14.1 40.1172 14.18C40.1972 14.2533 40.2372 14.3667 40.2372 14.52V15.34L40.1272 15.19C40.2672 14.81 40.4939 14.5233 40.8072 14.33C41.1272 14.1367 41.4905 14.04 41.8972 14.04C42.2905 14.04 42.6139 14.11 42.8672 14.25C43.1205 14.39 43.3105 14.6033 43.4372 14.89C43.5639 15.1767 43.6272 15.54 43.6272 15.98V18.6C43.6272 18.7533 43.5872 18.87 43.5072 18.95C43.4339 19.03 43.3239 19.07 43.1772 19.07C43.0305 19.07 42.9172 19.03 42.8372 18.95C42.7572 18.87 42.7172 18.7533 42.7172 18.6V16.03C42.7172 15.5967 42.6339 15.28 42.4672 15.08C42.3005 14.88 42.0339 14.78 41.6672 14.78C41.2405 14.78 40.8972 14.9133 40.6372 15.18C40.3839 15.44 40.2572 15.7933 40.2572 16.24V18.6C40.2572 18.9133 40.1039 19.07 39.7972 19.07ZM46.7498 19.09C46.4498 19.09 46.1465 19.0567 45.8398 18.99C45.5398 18.9167 45.2565 18.7933 44.9898 18.62C44.9165 18.5733 44.8632 18.5167 44.8298 18.45C44.8032 18.3767 44.7932 18.3067 44.7998 18.24C44.8132 18.1667 44.8432 18.1033 44.8898 18.05C44.9365 17.9967 44.9932 17.9667 45.0598 17.96C45.1332 17.9467 45.2098 17.9633 45.2898 18.01C45.5498 18.1567 45.7998 18.26 46.0398 18.32C46.2865 18.38 46.5298 18.41 46.7698 18.41C47.1365 18.41 47.4132 18.3433 47.5998 18.21C47.7865 18.0767 47.8798 17.9 47.8798 17.68C47.8798 17.4933 47.8165 17.35 47.6898 17.25C47.5698 17.1433 47.3798 17.0633 47.1198 17.01L46.1898 16.82C45.7765 16.7267 45.4632 16.5733 45.2498 16.36C45.0432 16.14 44.9398 15.86 44.9398 15.52C44.9398 15.22 45.0198 14.96 45.1798 14.74C45.3465 14.5133 45.5765 14.34 45.8698 14.22C46.1632 14.1 46.4998 14.04 46.8798 14.04C47.1732 14.04 47.4498 14.08 47.7098 14.16C47.9765 14.2333 48.2165 14.3467 48.4298 14.5C48.5098 14.5467 48.5598 14.6067 48.5798 14.68C48.6065 14.7467 48.6098 14.8167 48.5898 14.89C48.5765 14.9567 48.5465 15.0133 48.4998 15.06C48.4532 15.1067 48.3932 15.1367 48.3198 15.15C48.2465 15.1567 48.1665 15.1367 48.0798 15.09C47.8865 14.9567 47.6865 14.8633 47.4798 14.81C47.2798 14.75 47.0798 14.72 46.8798 14.72C46.5198 14.72 46.2465 14.79 46.0598 14.93C45.8798 15.07 45.7898 15.2533 45.7898 15.48C45.7898 15.6533 45.8432 15.7967 45.9498 15.91C46.0632 16.0233 46.2398 16.1067 46.4798 16.16L47.4098 16.35C47.8432 16.4433 48.1698 16.5933 48.3898 16.8C48.6098 17 48.7198 17.2733 48.7198 17.62C48.7198 18.0733 48.5398 18.4333 48.1798 18.7C47.8265 18.96 47.3498 19.09 46.7498 19.09ZM51.875 19.09C51.4817 19.09 51.1517 19.02 50.885 18.88C50.625 18.74 50.4283 18.5367 50.295 18.27C50.1683 18.0033 50.105 17.6767 50.105 17.29V14.83H49.465C49.345 14.83 49.2517 14.8 49.185 14.74C49.1183 14.6733 49.085 14.5867 49.085 14.48C49.085 14.3667 49.1183 14.28 49.185 14.22C49.2517 14.16 49.345 14.13 49.465 14.13H50.105V13.04C50.105 12.8867 50.145 12.7733 50.225 12.7C50.305 12.62 50.4183 12.58 50.565 12.58C50.7117 12.58 50.8217 12.62 50.895 12.7C50.975 12.7733 51.015 12.8867 51.015 13.04V14.13H52.225C52.3517 14.13 52.4483 14.16 52.515 14.22C52.5817 14.28 52.615 14.3667 52.615 14.48C52.615 14.5867 52.5817 14.6733 52.515 14.74C52.4483 14.8 52.3517 14.83 52.225 14.83H51.015V17.21C51.015 17.5767 51.0917 17.8533 51.245 18.04C51.3983 18.2267 51.6517 18.32 52.005 18.32C52.1317 18.32 52.2383 18.31 52.325 18.29C52.4117 18.2633 52.4883 18.25 52.555 18.25C52.615 18.2433 52.665 18.2633 52.705 18.31C52.7517 18.3567 52.775 18.4433 52.775 18.57C52.775 18.6633 52.7583 18.75 52.725 18.83C52.6983 18.9033 52.6417 18.9533 52.555 18.98C52.475 19.0067 52.3683 19.03 52.235 19.05C52.1017 19.0767 51.9817 19.09 51.875 19.09ZM54.989 19.09C54.6557 19.09 54.3523 19.0233 54.079 18.89C53.8123 18.7567 53.6023 18.5767 53.449 18.35C53.3023 18.1233 53.229 17.87 53.229 17.59C53.229 17.23 53.319 16.9467 53.499 16.74C53.679 16.5333 53.9823 16.3867 54.409 16.3C54.8357 16.2067 55.409 16.16 56.129 16.16H56.599V16.74H56.149C55.6357 16.74 55.229 16.7633 54.929 16.81C54.6357 16.8567 54.429 16.94 54.309 17.06C54.189 17.1733 54.129 17.3333 54.129 17.54C54.129 17.8 54.219 18.0133 54.399 18.18C54.5857 18.3467 54.839 18.43 55.159 18.43C55.4123 18.43 55.6357 18.37 55.829 18.25C56.0223 18.1233 56.1757 17.9567 56.289 17.75C56.4023 17.5367 56.459 17.2933 56.459 17.02V15.87C56.459 15.4767 56.379 15.1933 56.219 15.02C56.059 14.84 55.789 14.75 55.409 14.75C55.189 14.75 54.9623 14.78 54.729 14.84C54.4957 14.9 54.2523 14.9933 53.999 15.12C53.899 15.1667 53.8123 15.1833 53.739 15.17C53.6657 15.15 53.6057 15.11 53.559 15.05C53.519 14.9833 53.4957 14.9133 53.489 14.84C53.489 14.76 53.5057 14.6833 53.539 14.61C53.579 14.5367 53.6457 14.4833 53.739 14.45C54.0323 14.3033 54.3223 14.2 54.609 14.14C54.9023 14.0733 55.1757 14.04 55.429 14.04C55.8623 14.04 56.219 14.11 56.499 14.25C56.779 14.3833 56.989 14.5933 57.129 14.88C57.269 15.16 57.339 15.52 57.339 15.96V18.6C57.339 18.7533 57.3023 18.87 57.229 18.95C57.1557 19.03 57.049 19.07 56.909 19.07C56.7757 19.07 56.669 19.03 56.589 18.95C56.5157 18.87 56.479 18.7533 56.479 18.6V17.89H56.569C56.5157 18.1367 56.4157 18.35 56.269 18.53C56.1223 18.71 55.939 18.85 55.719 18.95C55.5057 19.0433 55.2623 19.09 54.989 19.09ZM60.961 20.89C60.601 20.89 60.251 20.85 59.911 20.77C59.5777 20.69 59.2743 20.5667 59.001 20.4C58.9143 20.3467 58.8543 20.2833 58.821 20.21C58.7943 20.1433 58.7877 20.0733 58.801 20C58.821 19.9267 58.8543 19.86 58.901 19.8C58.9543 19.7467 59.0143 19.71 59.081 19.69C59.1543 19.6767 59.2277 19.6933 59.301 19.74C59.5943 19.9067 59.8743 20.02 60.141 20.08C60.4077 20.14 60.661 20.17 60.901 20.17C61.3743 20.17 61.7277 20.0467 61.961 19.8C62.201 19.56 62.321 19.2067 62.321 18.74V17.66H62.411C62.3177 18.0333 62.1077 18.33 61.781 18.55C61.461 18.77 61.0877 18.88 60.661 18.88C60.221 18.88 59.8377 18.78 59.511 18.58C59.1843 18.3733 58.931 18.09 58.751 17.73C58.571 17.3633 58.481 16.94 58.481 16.46C58.481 16.0933 58.531 15.7633 58.631 15.47C58.7377 15.17 58.8843 14.9167 59.071 14.71C59.2643 14.4967 59.4943 14.3333 59.761 14.22C60.0277 14.1 60.3277 14.04 60.661 14.04C61.0943 14.04 61.471 14.15 61.791 14.37C62.111 14.59 62.3177 14.8867 62.411 15.26L62.301 15.4V14.52C62.301 14.3667 62.341 14.2533 62.421 14.18C62.501 14.1 62.6143 14.06 62.761 14.06C62.901 14.06 63.011 14.1 63.091 14.18C63.171 14.2533 63.211 14.3667 63.211 14.52V18.62C63.211 19.3733 63.0177 19.94 62.631 20.32C62.251 20.7 61.6943 20.89 60.961 20.89ZM60.861 18.16C61.161 18.16 61.4177 18.0933 61.631 17.96C61.851 17.82 62.0177 17.6233 62.131 17.37C62.251 17.11 62.311 16.8067 62.311 16.46C62.311 15.9333 62.181 15.52 61.921 15.22C61.661 14.9133 61.3077 14.76 60.861 14.76C60.561 14.76 60.301 14.83 60.081 14.97C59.8677 15.1033 59.701 15.2967 59.581 15.55C59.461 15.8033 59.401 16.1067 59.401 16.46C59.401 16.98 59.531 17.3933 59.791 17.7C60.0577 18.0067 60.4143 18.16 60.861 18.16ZM65.1395 19.07C64.9861 19.07 64.8695 19.03 64.7895 18.95C64.7095 18.87 64.6695 18.7533 64.6695 18.6V14.52C64.6695 14.3667 64.7095 14.2533 64.7895 14.18C64.8695 14.1 64.9795 14.06 65.1195 14.06C65.2595 14.06 65.3661 14.1 65.4395 14.18C65.5195 14.2533 65.5595 14.3667 65.5595 14.52V15.29H65.4595C65.5661 14.89 65.7661 14.5867 66.0595 14.38C66.3528 14.1733 66.7228 14.0567 67.1695 14.03C67.2761 14.0233 67.3628 14.05 67.4295 14.11C67.4961 14.1633 67.5328 14.2567 67.5395 14.39C67.5461 14.5167 67.5161 14.62 67.4495 14.7C67.3828 14.7733 67.2795 14.8167 67.1395 14.83L66.9595 14.84C66.5195 14.8867 66.1795 15.03 65.9395 15.27C65.7061 15.51 65.5895 15.84 65.5895 16.26V18.6C65.5895 18.7533 65.5495 18.87 65.4695 18.95C65.3961 19.03 65.2861 19.07 65.1395 19.07ZM69.823 19.09C69.4896 19.09 69.1863 19.0233 68.913 18.89C68.6463 18.7567 68.4363 18.5767 68.283 18.35C68.1363 18.1233 68.063 17.87 68.063 17.59C68.063 17.23 68.153 16.9467 68.333 16.74C68.513 16.5333 68.8163 16.3867 69.243 16.3C69.6696 16.2067 70.243 16.16 70.963 16.16H71.433V16.74H70.983C70.4696 16.74 70.063 16.7633 69.763 16.81C69.4696 16.8567 69.263 16.94 69.143 17.06C69.023 17.1733 68.963 17.3333 68.963 17.54C68.963 17.8 69.053 18.0133 69.233 18.18C69.4196 18.3467 69.673 18.43 69.993 18.43C70.2463 18.43 70.4696 18.37 70.663 18.25C70.8563 18.1233 71.0096 17.9567 71.123 17.75C71.2363 17.5367 71.293 17.2933 71.293 17.02V15.87C71.293 15.4767 71.213 15.1933 71.053 15.02C70.893 14.84 70.623 14.75 70.243 14.75C70.023 14.75 69.7963 14.78 69.563 14.84C69.3296 14.9 69.0863 14.9933 68.833 15.12C68.733 15.1667 68.6463 15.1833 68.573 15.17C68.4996 15.15 68.4396 15.11 68.393 15.05C68.353 14.9833 68.3296 14.9133 68.323 14.84C68.323 14.76 68.3396 14.6833 68.373 14.61C68.413 14.5367 68.4796 14.4833 68.573 14.45C68.8663 14.3033 69.1563 14.2 69.443 14.14C69.7363 14.0733 70.0096 14.04 70.263 14.04C70.6963 14.04 71.053 14.11 71.333 14.25C71.613 14.3833 71.823 14.5933 71.963 14.88C72.103 15.16 72.173 15.52 72.173 15.96V18.6C72.173 18.7533 72.1363 18.87 72.063 18.95C71.9896 19.03 71.883 19.07 71.743 19.07C71.6096 19.07 71.503 19.03 71.423 18.95C71.3496 18.87 71.313 18.7533 71.313 18.6V17.89H71.403C71.3496 18.1367 71.2496 18.35 71.103 18.53C70.9563 18.71 70.773 18.85 70.553 18.95C70.3396 19.0433 70.0963 19.09 69.823 19.09ZM74.075 19.07C73.935 19.07 73.825 19.03 73.745 18.95C73.665 18.87 73.625 18.7533 73.625 18.6V14.52C73.625 14.3667 73.665 14.2533 73.745 14.18C73.825 14.1 73.935 14.06 74.075 14.06C74.215 14.06 74.3217 14.1 74.395 14.18C74.475 14.2533 74.515 14.3667 74.515 14.52V15.37L74.405 15.19C74.5317 14.8233 74.735 14.54 75.015 14.34C75.3017 14.14 75.6417 14.04 76.035 14.04C76.4483 14.04 76.7817 14.14 77.035 14.34C77.2883 14.5333 77.4583 14.83 77.545 15.23H77.405C77.525 14.8633 77.7383 14.5733 78.045 14.36C78.3583 14.1467 78.7217 14.04 79.135 14.04C79.5017 14.04 79.8017 14.1133 80.035 14.26C80.275 14.4 80.455 14.6133 80.575 14.9C80.695 15.18 80.755 15.54 80.755 15.98V18.6C80.755 18.7533 80.715 18.87 80.635 18.95C80.555 19.03 80.445 19.07 80.305 19.07C80.1583 19.07 80.045 19.03 79.965 18.95C79.885 18.87 79.845 18.7533 79.845 18.6V16.02C79.845 15.5933 79.7717 15.28 79.625 15.08C79.4783 14.88 79.2317 14.78 78.885 14.78C78.505 14.78 78.2017 14.9133 77.975 15.18C77.755 15.44 77.645 15.8 77.645 16.26V18.6C77.645 18.7533 77.605 18.87 77.525 18.95C77.4517 19.03 77.3417 19.07 77.195 19.07C77.0483 19.07 76.935 19.03 76.855 18.95C76.775 18.87 76.735 18.7533 76.735 18.6V16.02C76.735 15.5933 76.6617 15.28 76.515 15.08C76.3683 14.88 76.1217 14.78 75.775 14.78C75.395 14.78 75.0917 14.9133 74.865 15.18C74.645 15.44 74.535 15.8 74.535 16.26V18.6C74.535 18.9133 74.3817 19.07 74.075 19.07Z" fill="black"/>
<defs>
<radialGradient id="paint0_radial_31_360" cx="0" cy="0" r="1" gradientUnits="userSpaceOnUse" gradientTransform="translate(13.3125 27.5404) rotate(-90) scale(19.8215 18.4355)">
<stop stop-color="#FFDD55"/>
<stop offset="0.1" stop-color="#FFDD55"/>
<stop offset="0.5" stop-color="#FF543E"/>
<stop offset="1" stop-color="#C837AB"/>
</radialGradient>
<radialGradient id="paint1_radial_31_360" cx="0" cy="0" r="1" gradientUnits="userSpaceOnUse" gradientTransform="translate(4.64989 7.44077) rotate(78.6806) scale(8.86028 36.5225)">
<stop stop-color="#3771C8"/>
<stop offset="0.128" stop-color="#3771C8"/>
<stop offset="1" stop-color="#6600FF" stop-opacity="0"/>
</radialGradient>
</defs>
</svg>
