<svg width="76" height="32" viewBox="0 0 76 32" fill="none" xmlns="http://www.w3.org/2000/svg">
<rect width="76" height="32" rx="4" fill="white"/>
<path d="M24.1012 10.6352C23.9746 10.5697 23.8514 10.498 23.732 10.4203C23.3849 10.1908 23.0666 9.92037 22.784 9.61484C22.0769 8.80586 21.8129 7.98516 21.7156 7.41055H21.7195C21.6383 6.93359 21.6719 6.625 21.6769 6.625H18.4566V19.0773C18.4566 19.2445 18.4566 19.4098 18.4496 19.573C18.4496 19.5934 18.4476 19.6121 18.4465 19.634C18.4465 19.643 18.4465 19.6523 18.4445 19.6617C18.4445 19.6641 18.4445 19.6664 18.4445 19.6688C18.4106 20.1155 18.2674 20.5471 18.0275 20.9256C17.7876 21.304 17.4583 21.6177 17.0687 21.8391C16.6627 22.0701 16.2035 22.1912 15.7363 22.1906C14.2359 22.1906 13.0199 20.9672 13.0199 19.4563C13.0199 17.9453 14.2359 16.7219 15.7363 16.7219C16.0203 16.7216 16.3026 16.7663 16.5726 16.8543L16.5766 13.5754C15.7568 13.4695 14.9239 13.5346 14.1306 13.7667C13.3373 13.9988 12.6006 14.3928 11.9672 14.9238C11.4121 15.4061 10.9455 15.9815 10.5883 16.6242C10.4523 16.8586 9.93944 17.8004 9.87733 19.3289C9.83827 20.1965 10.0988 21.0953 10.223 21.4668V21.4746C10.3012 21.6934 10.6039 22.4398 11.0973 23.0691C11.4951 23.5739 11.9651 24.0174 12.4922 24.3852V24.3773L12.5 24.3852C14.059 25.4445 15.7875 25.375 15.7875 25.375C16.0867 25.3629 17.0891 25.375 18.2273 24.8355C19.4898 24.2375 20.2086 23.3465 20.2086 23.3465C20.6678 22.8141 21.0329 22.2074 21.2883 21.5523C21.5797 20.7863 21.6769 19.8676 21.6769 19.5004V12.8941C21.716 12.9176 22.2363 13.2617 22.2363 13.2617C22.2363 13.2617 22.9859 13.7422 24.1555 14.0551C24.9945 14.2777 26.125 14.3246 26.125 14.3246V11.1277C25.7289 11.1707 24.9246 11.0457 24.1012 10.6352Z" fill="black"/>
<path d="M39.04 19.07C38.8867 19.07 38.77 19.03 38.69 18.95C38.61 18.8633 38.57 18.7433 38.57 18.59V12.74H36.38C36.2533 12.74 36.1533 12.7067 36.08 12.64C36.0067 12.5667 35.97 12.4667 35.97 12.34C35.97 12.2133 36.0067 12.1167 36.08 12.05C36.1533 11.9833 36.2533 11.95 36.38 11.95H41.69C41.8233 11.95 41.9233 11.9833 41.99 12.05C42.0633 12.1167 42.1 12.2133 42.1 12.34C42.1 12.4667 42.0633 12.5667 41.99 12.64C41.9233 12.7067 41.8233 12.74 41.69 12.74H39.5V18.59C39.5 18.7433 39.46 18.8633 39.38 18.95C39.3067 19.03 39.1933 19.07 39.04 19.07ZM43.5765 19.05C43.4365 19.05 43.3265 19.0067 43.2465 18.92C43.1665 18.8333 43.1265 18.7133 43.1265 18.56V14.57C43.1265 14.41 43.1665 14.29 43.2465 14.21C43.3265 14.1233 43.4365 14.08 43.5765 14.08C43.7232 14.08 43.8365 14.1233 43.9165 14.21C43.9965 14.29 44.0365 14.41 44.0365 14.57V18.56C44.0365 18.7133 43.9965 18.8333 43.9165 18.92C43.8432 19.0067 43.7298 19.05 43.5765 19.05ZM43.5765 13C43.3965 13 43.2532 12.9533 43.1465 12.86C43.0465 12.76 42.9965 12.63 42.9965 12.47C42.9965 12.2967 43.0465 12.1667 43.1465 12.08C43.2532 11.9867 43.3965 11.94 43.5765 11.94C43.7698 11.94 43.9132 11.9867 44.0065 12.08C44.1065 12.1667 44.1565 12.2967 44.1565 12.47C44.1565 12.63 44.1065 12.76 44.0065 12.86C43.9132 12.9533 43.7698 13 43.5765 13ZM45.9495 19.07C45.8095 19.07 45.6995 19.03 45.6195 18.95C45.5395 18.87 45.4995 18.7533 45.4995 18.6V12.34C45.4995 12.1867 45.5395 12.0733 45.6195 12C45.6995 11.92 45.8095 11.88 45.9495 11.88C46.0962 11.88 46.2095 11.92 46.2895 12C46.3695 12.0733 46.4095 12.1867 46.4095 12.34V16.28H46.4295L48.3895 14.37C48.4895 14.27 48.5795 14.1933 48.6595 14.14C48.7395 14.0867 48.8429 14.06 48.9695 14.06C49.0962 14.06 49.1929 14.0933 49.2595 14.16C49.3262 14.22 49.3595 14.3 49.3595 14.4C49.3595 14.4933 49.3129 14.5867 49.2195 14.68L47.1395 16.7V16.25L49.4095 18.44C49.5029 18.5333 49.5462 18.63 49.5395 18.73C49.5395 18.83 49.5029 18.9133 49.4295 18.98C49.3629 19.04 49.2729 19.07 49.1595 19.07C49.0262 19.07 48.9162 19.0433 48.8295 18.99C48.7495 18.9367 48.6562 18.8533 48.5495 18.74L46.4295 16.74H46.4095V18.6C46.4095 18.9133 46.2562 19.07 45.9495 19.07ZM52.4707 19.09C52.0774 19.09 51.7474 19.02 51.4807 18.88C51.2207 18.74 51.024 18.5367 50.8907 18.27C50.764 18.0033 50.7007 17.6767 50.7007 17.29V14.83H50.0607C49.9407 14.83 49.8474 14.8 49.7807 14.74C49.714 14.6733 49.6807 14.5867 49.6807 14.48C49.6807 14.3667 49.714 14.28 49.7807 14.22C49.8474 14.16 49.9407 14.13 50.0607 14.13H50.7007V13.04C50.7007 12.8867 50.7407 12.7733 50.8207 12.7C50.9007 12.62 51.014 12.58 51.1607 12.58C51.3074 12.58 51.4174 12.62 51.4907 12.7C51.5707 12.7733 51.6107 12.8867 51.6107 13.04V14.13H52.8207C52.9474 14.13 53.044 14.16 53.1107 14.22C53.1774 14.28 53.2107 14.3667 53.2107 14.48C53.2107 14.5867 53.1774 14.6733 53.1107 14.74C53.044 14.8 52.9474 14.83 52.8207 14.83H51.6107V17.21C51.6107 17.5767 51.6874 17.8533 51.8407 18.04C51.994 18.2267 52.2474 18.32 52.6007 18.32C52.7274 18.32 52.834 18.31 52.9207 18.29C53.0074 18.2633 53.084 18.25 53.1507 18.25C53.2107 18.2433 53.2607 18.2633 53.3007 18.31C53.3474 18.3567 53.3707 18.4433 53.3707 18.57C53.3707 18.6633 53.354 18.75 53.3207 18.83C53.294 18.9033 53.2374 18.9533 53.1507 18.98C53.0707 19.0067 52.964 19.03 52.8307 19.05C52.6974 19.0767 52.5774 19.09 52.4707 19.09ZM56.0559 19.09C55.5759 19.09 55.1592 18.9867 54.8059 18.78C54.4525 18.5733 54.1792 18.28 53.9859 17.9C53.7925 17.52 53.6959 17.0733 53.6959 16.56C53.6959 16.1733 53.7492 15.8267 53.8559 15.52C53.9692 15.2067 54.1292 14.94 54.3359 14.72C54.5425 14.5 54.7892 14.3333 55.0759 14.22C55.3692 14.1 55.6959 14.04 56.0559 14.04C56.5359 14.04 56.9525 14.1433 57.3059 14.35C57.6592 14.5567 57.9325 14.85 58.1259 15.23C58.3192 15.6033 58.4159 16.0467 58.4159 16.56C58.4159 16.9467 58.3592 17.2967 58.2459 17.61C58.1392 17.9233 57.9825 18.19 57.7759 18.41C57.5692 18.63 57.3192 18.8 57.0259 18.92C56.7392 19.0333 56.4159 19.09 56.0559 19.09ZM56.0559 18.37C56.3492 18.37 56.6025 18.3 56.8159 18.16C57.0359 18.02 57.2025 17.8167 57.3159 17.55C57.4359 17.2833 57.4959 16.9533 57.4959 16.56C57.4959 15.9733 57.3659 15.5267 57.1059 15.22C56.8459 14.9133 56.4959 14.76 56.0559 14.76C55.7692 14.76 55.5159 14.83 55.2959 14.97C55.0825 15.1033 54.9159 15.3033 54.7959 15.57C54.6759 15.8367 54.6159 16.1667 54.6159 16.56C54.6159 17.1467 54.7459 17.5967 55.0059 17.91C55.2725 18.2167 55.6225 18.37 56.0559 18.37ZM60.0316 19.07C59.8916 19.07 59.7816 19.03 59.7016 18.95C59.6216 18.87 59.5816 18.7533 59.5816 18.6V12.34C59.5816 12.1867 59.6216 12.0733 59.7016 12C59.7816 11.92 59.8916 11.88 60.0316 11.88C60.1782 11.88 60.2916 11.92 60.3716 12C60.4516 12.0733 60.4916 12.1867 60.4916 12.34V16.28H60.5116L62.4716 14.37C62.5716 14.27 62.6616 14.1933 62.7416 14.14C62.8216 14.0867 62.9249 14.06 63.0516 14.06C63.1782 14.06 63.2749 14.0933 63.3416 14.16C63.4082 14.22 63.4416 14.3 63.4416 14.4C63.4416 14.4933 63.3949 14.5867 63.3016 14.68L61.2216 16.7V16.25L63.4916 18.44C63.5849 18.5333 63.6282 18.63 63.6216 18.73C63.6216 18.83 63.5849 18.9133 63.5116 18.98C63.4449 19.04 63.3549 19.07 63.2416 19.07C63.1082 19.07 62.9982 19.0433 62.9116 18.99C62.8316 18.9367 62.7382 18.8533 62.6316 18.74L60.5116 16.74H60.4916V18.6C60.4916 18.9133 60.3382 19.07 60.0316 19.07Z" fill="black"/>
</svg>
