<svg width="85" height="32" viewBox="0 0 85 32" fill="none" xmlns="http://www.w3.org/2000/svg">
<rect width="85" height="32" rx="4" fill="white"/>
<path d="M23.8463 8.92383H12.1537C9.85969 8.92383 8 10.7835 8 13.0776V18.9226C8 21.2166 9.85969 23.0763 12.1537 23.0763H23.8463C26.1403 23.0763 28 21.2166 28 18.9226V13.0776C28 10.7835 26.1403 8.92383 23.8463 8.92383ZM21.0371 16.2845L15.5681 18.8928C15.4224 18.9623 15.2541 18.8561 15.2541 18.6947V13.3149C15.2541 13.1512 15.4268 13.045 15.5729 13.119L21.0418 15.8905C21.2044 15.9728 21.2016 16.206 21.0371 16.2845Z" fill="#F61C0D"/>
<path d="M39 19.07C38.8533 19.07 38.74 19.03 38.66 18.95C38.58 18.8633 38.54 18.74 38.54 18.58V15.35L38.74 15.97L36.26 12.53C36.1933 12.4367 36.16 12.34 36.16 12.24C36.1667 12.1333 36.2067 12.0467 36.28 11.98C36.3533 11.9133 36.4533 11.88 36.58 11.88C36.68 11.88 36.77 11.9033 36.85 11.95C36.93 11.9967 37.0067 12.0733 37.08 12.18L39.14 15.02H38.91L40.97 12.18C41.0433 12.0667 41.1167 11.99 41.19 11.95C41.2633 11.9033 41.3567 11.88 41.47 11.88C41.59 11.88 41.6833 11.9133 41.75 11.98C41.8233 12.04 41.86 12.12 41.86 12.22C41.8667 12.32 41.83 12.4233 41.75 12.53L39.27 15.97L39.47 15.35V18.58C39.47 18.9067 39.3133 19.07 39 19.07ZM44.0051 19.09C43.5251 19.09 43.1084 18.9867 42.7551 18.78C42.4017 18.5733 42.1284 18.28 41.9351 17.9C41.7417 17.52 41.6451 17.0733 41.6451 16.56C41.6451 16.1733 41.6984 15.8267 41.8051 15.52C41.9184 15.2067 42.0784 14.94 42.2851 14.72C42.4917 14.5 42.7384 14.3333 43.0251 14.22C43.3184 14.1 43.6451 14.04 44.0051 14.04C44.4851 14.04 44.9017 14.1433 45.2551 14.35C45.6084 14.5567 45.8817 14.85 46.0751 15.23C46.2684 15.6033 46.3651 16.0467 46.3651 16.56C46.3651 16.9467 46.3084 17.2967 46.1951 17.61C46.0884 17.9233 45.9317 18.19 45.7251 18.41C45.5184 18.63 45.2684 18.8 44.9751 18.92C44.6884 19.0333 44.3651 19.09 44.0051 19.09ZM44.0051 18.37C44.2984 18.37 44.5517 18.3 44.7651 18.16C44.9851 18.02 45.1517 17.8167 45.2651 17.55C45.3851 17.2833 45.4451 16.9533 45.4451 16.56C45.4451 15.9733 45.3151 15.5267 45.0551 15.22C44.7951 14.9133 44.4451 14.76 44.0051 14.76C43.7184 14.76 43.4651 14.83 43.2451 14.97C43.0317 15.1033 42.8651 15.3033 42.7451 15.57C42.6251 15.8367 42.5651 16.1667 42.5651 16.56C42.5651 17.1467 42.6951 17.5967 42.9551 17.91C43.2217 18.2167 43.5717 18.37 44.0051 18.37ZM49.2708 19.09C48.8774 19.09 48.5474 19.0167 48.2808 18.87C48.0208 18.7233 47.8274 18.5067 47.7008 18.22C47.5741 17.9333 47.5108 17.5733 47.5108 17.14V14.52C47.5108 14.3667 47.5474 14.2533 47.6208 14.18C47.7008 14.1 47.8141 14.06 47.9608 14.06C48.1074 14.06 48.2208 14.1 48.3008 14.18C48.3808 14.2533 48.4208 14.3667 48.4208 14.52V17.14C48.4208 17.5533 48.5041 17.86 48.6708 18.06C48.8374 18.2533 49.1008 18.35 49.4608 18.35C49.8608 18.35 50.1841 18.2167 50.4308 17.95C50.6841 17.6833 50.8108 17.33 50.8108 16.89V14.52C50.8108 14.3667 50.8474 14.2533 50.9208 14.18C51.0008 14.1 51.1141 14.06 51.2608 14.06C51.4074 14.06 51.5208 14.1 51.6008 14.18C51.6808 14.2533 51.7208 14.3667 51.7208 14.52V18.6C51.7208 18.9133 51.5741 19.07 51.2808 19.07C51.1341 19.07 51.0208 19.03 50.9408 18.95C50.8674 18.87 50.8308 18.7533 50.8308 18.6V17.73L50.9608 17.9C50.8274 18.2867 50.6108 18.5833 50.3108 18.79C50.0174 18.99 49.6708 19.09 49.2708 19.09ZM55.2051 19.09C54.8117 19.09 54.4817 19.02 54.2151 18.88C53.9551 18.74 53.7584 18.5367 53.6251 18.27C53.4984 18.0033 53.4351 17.6767 53.4351 17.29V14.83H52.7951C52.6751 14.83 52.5817 14.8 52.5151 14.74C52.4484 14.6733 52.4151 14.5867 52.4151 14.48C52.4151 14.3667 52.4484 14.28 52.5151 14.22C52.5817 14.16 52.6751 14.13 52.7951 14.13H53.4351V13.04C53.4351 12.8867 53.4751 12.7733 53.5551 12.7C53.6351 12.62 53.7484 12.58 53.8951 12.58C54.0417 12.58 54.1517 12.62 54.2251 12.7C54.3051 12.7733 54.3451 12.8867 54.3451 13.04V14.13H55.5551C55.6817 14.13 55.7784 14.16 55.8451 14.22C55.9117 14.28 55.9451 14.3667 55.9451 14.48C55.9451 14.5867 55.9117 14.6733 55.8451 14.74C55.7784 14.8 55.6817 14.83 55.5551 14.83H54.3451V17.21C54.3451 17.5767 54.4217 17.8533 54.5751 18.04C54.7284 18.2267 54.9817 18.32 55.3351 18.32C55.4617 18.32 55.5684 18.31 55.6551 18.29C55.7417 18.2633 55.8184 18.25 55.8851 18.25C55.9451 18.2433 55.9951 18.2633 56.0351 18.31C56.0817 18.3567 56.1051 18.4433 56.1051 18.57C56.1051 18.6633 56.0884 18.75 56.0551 18.83C56.0284 18.9033 55.9717 18.9533 55.8851 18.98C55.8051 19.0067 55.6984 19.03 55.5651 19.05C55.4317 19.0767 55.3117 19.09 55.2051 19.09ZM58.5091 19.09C58.1157 19.09 57.7857 19.0167 57.5191 18.87C57.2591 18.7233 57.0657 18.5067 56.9391 18.22C56.8124 17.9333 56.7491 17.5733 56.7491 17.14V14.52C56.7491 14.3667 56.7857 14.2533 56.8591 14.18C56.9391 14.1 57.0524 14.06 57.1991 14.06C57.3457 14.06 57.4591 14.1 57.5391 14.18C57.6191 14.2533 57.6591 14.3667 57.6591 14.52V17.14C57.6591 17.5533 57.7424 17.86 57.9091 18.06C58.0757 18.2533 58.3391 18.35 58.6991 18.35C59.0991 18.35 59.4224 18.2167 59.6691 17.95C59.9224 17.6833 60.0491 17.33 60.0491 16.89V14.52C60.0491 14.3667 60.0857 14.2533 60.1591 14.18C60.2391 14.1 60.3524 14.06 60.4991 14.06C60.6457 14.06 60.7591 14.1 60.8391 14.18C60.9191 14.2533 60.9591 14.3667 60.9591 14.52V18.6C60.9591 18.9133 60.8124 19.07 60.5191 19.07C60.3724 19.07 60.2591 19.03 60.1791 18.95C60.1057 18.87 60.0691 18.7533 60.0691 18.6V17.73L60.1991 17.9C60.0657 18.2867 59.8491 18.5833 59.5491 18.79C59.2557 18.99 58.9091 19.09 58.5091 19.09ZM64.9734 19.09C64.5334 19.09 64.1567 18.98 63.8434 18.76C63.53 18.54 63.32 18.2433 63.2134 17.87L63.3234 17.72V18.6C63.3234 18.7533 63.2834 18.87 63.2034 18.95C63.13 19.03 63.02 19.07 62.8734 19.07C62.7334 19.07 62.6234 19.03 62.5434 18.95C62.4634 18.87 62.4234 18.7533 62.4234 18.6V12.34C62.4234 12.1867 62.4634 12.0733 62.5434 12C62.6234 11.92 62.7334 11.88 62.8734 11.88C63.02 11.88 63.1334 11.92 63.2134 12C63.2934 12.0733 63.3334 12.1867 63.3334 12.34V15.23H63.2234C63.33 14.87 63.54 14.5833 63.8534 14.37C64.1667 14.15 64.54 14.04 64.9734 14.04C65.4067 14.04 65.7834 14.1433 66.1034 14.35C66.43 14.55 66.68 14.84 66.8534 15.22C67.0334 15.5933 67.1234 16.04 67.1234 16.56C67.1234 17.0733 67.0334 17.5233 66.8534 17.91C66.6734 18.29 66.4234 18.5833 66.1034 18.79C65.7834 18.99 65.4067 19.09 64.9734 19.09ZM64.7634 18.37C65.05 18.37 65.3 18.3 65.5134 18.16C65.7334 18.02 65.9034 17.8167 66.0234 17.55C66.1434 17.2833 66.2034 16.9533 66.2034 16.56C66.2034 15.9733 66.0734 15.5267 65.8134 15.22C65.5534 14.9133 65.2034 14.76 64.7634 14.76C64.47 14.76 64.2134 14.83 63.9934 14.97C63.78 15.1033 63.6134 15.3033 63.4934 15.57C63.38 15.8367 63.3234 16.1667 63.3234 16.56C63.3234 17.1467 63.4534 17.5967 63.7134 17.91C63.9734 18.2167 64.3234 18.37 64.7634 18.37ZM70.5425 19.09C70.0158 19.09 69.5625 18.99 69.1825 18.79C68.8092 18.5833 68.5192 18.2933 68.3125 17.92C68.1058 17.54 68.0025 17.0933 68.0025 16.58C68.0025 16.0733 68.1025 15.63 68.3025 15.25C68.5092 14.87 68.7892 14.5733 69.1425 14.36C69.5025 14.1467 69.9125 14.04 70.3725 14.04C70.6992 14.04 70.9925 14.0967 71.2525 14.21C71.5192 14.3167 71.7458 14.4733 71.9325 14.68C72.1192 14.8867 72.2592 15.14 72.3525 15.44C72.4525 15.7333 72.5025 16.0667 72.5025 16.44C72.5025 16.5467 72.4692 16.63 72.4025 16.69C72.3425 16.7433 72.2525 16.77 72.1325 16.77H68.7125V16.19H71.9025L71.7325 16.33C71.7325 15.9833 71.6792 15.69 71.5725 15.45C71.4725 15.2033 71.3225 15.0167 71.1225 14.89C70.9292 14.7633 70.6858 14.7 70.3925 14.7C70.0725 14.7 69.7992 14.7767 69.5725 14.93C69.3458 15.0767 69.1725 15.2867 69.0525 15.56C68.9325 15.8267 68.8725 16.1367 68.8725 16.49V16.55C68.8725 17.15 69.0158 17.6033 69.3025 17.91C69.5892 18.2167 70.0025 18.37 70.5425 18.37C70.7558 18.37 70.9725 18.3433 71.1925 18.29C71.4192 18.2367 71.6358 18.14 71.8425 18C71.9425 17.94 72.0325 17.9133 72.1125 17.92C72.1992 17.92 72.2692 17.9467 72.3225 18C72.3758 18.0467 72.4092 18.1067 72.4225 18.18C72.4358 18.2467 72.4258 18.32 72.3925 18.4C72.3592 18.48 72.2958 18.55 72.2025 18.61C71.9825 18.7633 71.7192 18.8833 71.4125 18.97C71.1125 19.05 70.8225 19.09 70.5425 19.09Z" fill="black"/>
</svg>
